<svg width="24" height="24" viewBox="0 0 24 24" fill="none" xmlns="http://www.w3.org/2000/svg">
<path d="M12 2C10.9 2 10 2.9 10 4V12C10 13.1 10.9 14 12 14C13.1 14 14 13.1 14 12V4C14 2.9 13.1 2 12 2Z" fill="white"/>
<path d="M19 10C18.45 10 18 10.45 18 11V12C18 14.76 15.76 17 13 17H11C8.24 17 6 14.76 6 12V11C6 10.45 5.55 10 5 10C4.45 10 4 10.45 4 11V12C4 15.64 6.81 18.64 10.25 18.97V21H8C7.45 21 7 21.45 7 22C7 22.55 7.45 23 8 23H16C16.55 23 17 22.55 17 22C17 21.45 16.55 21 16 21H13.75V18.97C17.19 18.64 20 15.64 20 12V11C20 10.45 19.55 10 19 10Z" fill="white"/>
</svg>