<svg width="24" height="24" viewBox="0 0 24 24" fill="none" xmlns="http://www.w3.org/2000/svg">
<path d="M19 11C19 11.19 19 11.38 18.98 11.56L17.5 10.08C17.5 10.05 17.5 10.03 17.5 10V9.5C17.5 8.95 17.05 8.5 16.5 8.5C15.95 8.5 15.5 8.95 15.5 9.5V10L10 4.5V4C10 2.9 10.9 2 12 2C13.1 2 14 2.9 14 4V12C14 12.23 13.97 12.45 13.93 12.66L15.41 14.14C15.78 13.5 16 12.77 16 12V11C16 10.45 16.45 10 17 10C17.55 10 18 10.45 18 11V12C18 12.19 17.98 12.38 17.96 12.56L19.44 14.04C19.8 13.42 20 12.73 20 12V11C20 10.45 19.55 10 19 10C18.45 10 18 10.45 18 11" fill="white"/>
<path d="M12 14C11.7 14 11.41 13.93 11.15 13.82L12.32 14.99C12.21 15 12.11 15 12 15C10.34 15 9 13.66 9 12V11.27L10 12.27V12C10 13.1 10.9 14 12 14Z" fill="white"/>
<path d="M2.1 2.1L1.39 2.81L9.38 10.8C9.13 11.16 9 11.56 9 12C9 13.1 9.9 14 11 14C11.44 14 11.84 13.87 12.2 13.62L13.58 15C12.91 15.31 12.21 15.5 11.5 15.5C9.01 15.5 7 13.49 7 11V10.5C7 9.95 6.55 9.5 6 9.5C5.45 9.5 5 9.95 5 10.5V11C5 14.08 7.16 16.65 10 17.43V20H8C7.45 20 7 20.45 7 21C7 21.55 7.45 22 8 22H16C16.55 22 17 21.55 17 21C17 20.45 16.55 20 16 20H14V17.43C14.85 17.25 15.64 16.91 16.34 16.46L20.19 20.31L20.9 19.6L2.1 2.1Z" fill="white"/>
<line x1="3" y1="3" x2="21" y2="21" stroke="white" stroke-width="2" stroke-linecap="round"/>
</svg>