<svg version="1.1" id="Layer_1" xmlns="http://www.w3.org/2000/svg" xmlns:xlink="http://www.w3.org/1999/xlink" x="0px" y="0px"
	 width="100%" viewBox="0 0 503 504" enable-background="new 0 0 503 504" xml:space="preserve">
<path fill="#FFFFFF" opacity="1.000000" stroke="none" 
	d="
M296.000000,505.000000 
	C197.333359,505.000000 99.166710,505.000000 1.000053,505.000000 
	C1.000035,337.000061 1.000035,169.000122 1.000018,1.000143 
	C168.666565,1.000095 336.333130,1.000095 503.999756,1.000048 
	C503.999847,168.999863 503.999847,336.999725 503.999939,504.999786 
	C434.833344,505.000000 365.666656,505.000000 296.000000,505.000000 
M379.477997,46.988640 
	C367.757751,41.069286 356.324677,34.469822 344.256470,29.374630 
	C320.412903,19.307919 295.230682,13.991185 269.504211,12.194806 
	C248.105453,10.700611 226.670212,12.115331 205.579102,16.340067 
	C170.214798,23.423851 137.897827,37.561092 108.855453,59.059532 
	C91.159218,72.159065 75.348686,87.122002 61.642067,104.444893 
	C45.722416,124.564705 33.714760,146.757843 24.741316,170.656433 
	C16.779596,191.860550 11.662384,213.795258 10.130055,236.398941 
	C9.393393,247.265625 9.730195,258.232208 10.086826,269.137024 
	C10.356942,277.396393 10.899320,285.716553 12.237597,293.858917 
	C17.186073,323.966522 27.553062,352.295410 42.631985,378.714294 
	C54.432167,399.388672 69.406776,417.663940 87.114952,433.804871 
	C108.326752,453.139343 131.843994,468.590332 158.289658,479.700043 
	C193.282410,494.400330 229.649353,501.219604 267.527191,497.864716 
	C282.796356,496.512268 298.097717,494.195557 313.042877,490.809998 
	C338.184326,485.114532 361.341431,474.314545 383.132874,460.544647 
	C406.260803,445.930267 425.987213,427.609100 443.166473,406.401764 
	C463.958618,380.734406 478.782684,351.924866 487.233459,320.101440 
	C490.995239,305.935699 493.133209,291.252869 494.931580,276.671936 
	C497.586670,255.144791 496.517517,233.588715 492.556488,212.249054 
	C487.549255,185.273026 478.673340,159.695740 464.987274,135.790756 
	C454.710968,117.841515 442.932495,101.006363 428.532837,86.200020 
	C414.030243,71.287834 397.859802,58.295555 379.477997,46.988640 
z"/>
<path fill="#FFE8E2" opacity="1.000000" stroke="none" 
	d="
M379.761780,47.215897 
	C397.859802,58.295555 414.030243,71.287834 428.532837,86.200020 
	C442.932495,101.006363 454.710968,117.841515 464.987274,135.790756 
	C478.673340,159.695740 487.549255,185.273026 492.556488,212.249054 
	C496.517517,233.588715 497.586670,255.144791 494.931580,276.671936 
	C493.133209,291.252869 490.995239,305.935699 487.233459,320.101440 
	C478.782684,351.924866 463.958618,380.734406 443.166473,406.401764 
	C425.987213,427.609100 406.260803,445.930267 383.132874,460.544647 
	C361.341431,474.314545 338.184326,485.114532 313.042877,490.809998 
	C298.097717,494.195557 282.796356,496.512268 267.527191,497.864716 
	C229.649353,501.219604 193.282410,494.400330 158.289658,479.700043 
	C131.843994,468.590332 108.326752,453.139343 87.114952,433.804871 
	C69.406776,417.663940 54.432167,399.388672 42.631985,378.714294 
	C27.553062,352.295410 17.186073,323.966522 12.237597,293.858917 
	C10.899320,285.716553 10.356942,277.396393 10.086826,269.137024 
	C9.730195,258.232208 9.393393,247.265625 10.130055,236.398941 
	C11.662384,213.795258 16.779596,191.860550 24.741316,170.656433 
	C33.714760,146.757843 45.722416,124.564705 61.642067,104.444893 
	C75.348686,87.122002 91.159218,72.159065 108.855453,59.059532 
	C137.897827,37.561092 170.214798,23.423851 205.579102,16.340067 
	C226.670212,12.115331 248.105453,10.700611 269.504211,12.194806 
	C295.230682,13.991185 320.412903,19.307919 344.256470,29.374630 
	C356.324677,34.469822 367.757751,41.069286 379.761780,47.215897 
M219.720581,408.971588 
	C223.261215,407.939911 226.350296,409.864502 229.558823,410.317078 
	C239.232346,411.681519 249.158249,412.034180 258.940338,411.643768 
	C269.833130,411.209076 280.528076,409.363129 291.286377,406.710022 
	C301.270294,404.247925 310.855865,401.237183 319.979340,396.877930 
	C331.223572,391.505341 342.078522,385.314728 353.054993,379.391083 
	C353.923401,378.922455 354.427216,377.778229 355.851166,377.027893 
	C370.474518,372.204102 385.124054,367.457764 399.713287,362.532898 
	C412.191711,358.320557 417.860687,349.519623 415.784424,337.990021 
	C415.587433,336.896088 415.323090,335.814240 415.080994,334.684662 
	C415.866577,334.197754 416.400818,333.818878 416.975708,333.517395 
	C427.474854,328.011444 431.095215,320.218658 427.864288,308.696533 
	C423.031403,291.461365 415.680756,275.307251 405.796143,260.364197 
	C403.998840,257.647125 403.850952,255.871918 406.023346,252.995010 
	C416.657745,238.911987 424.516846,223.488602 427.576721,205.278458 
	C427.681213,204.127716 427.741577,202.971008 427.896606,201.827118 
	C431.989716,171.626846 424.503967,144.454453 406.021484,120.406906 
	C393.404327,103.990685 382.992432,97.268005 359.461395,106.059608 
	C341.050110,112.938362 324.070221,121.971626 309.360138,136.181259 
	C296.649841,147.608978 286.548279,161.035858 279.033203,176.355484 
	C277.541779,179.395813 275.666565,180.483063 272.461151,180.169495 
	C269.401855,179.870239 266.313629,179.866806 262.267365,179.516205 
	C252.634842,179.710388 242.996735,179.768417 233.372513,180.164520 
	C229.416458,180.327332 226.957596,179.774048 224.867569,175.567581 
	C217.339890,160.417053 207.556244,146.817780 194.276352,135.280045 
	C177.628006,120.136147 158.400696,109.708267 136.757248,103.600594 
	C124.528618,100.149734 114.021294,102.927849 105.484474,112.210548 
	C81.138840,138.683350 71.256638,169.639862 77.136589,206.100464 
	C80.745499,224.923065 88.836998,241.651978 101.043121,256.432220 
	C89.911308,273.321045 81.296364,291.036926 76.101349,310.334381 
	C73.695763,319.270233 77.323105,328.282135 85.642693,332.635010 
	C88.447609,334.102600 89.342041,335.347900 88.587006,338.708618 
	C86.600670,347.549805 90.745239,355.858704 98.891243,359.888977 
	C102.430466,361.640045 106.314888,362.703552 110.063583,364.019318 
	C122.733459,368.466553 135.412781,372.886902 148.521362,377.777069 
	C159.709122,383.882599 170.561340,390.747162 182.178040,395.882355 
	C194.040298,401.126068 206.653107,404.671875 219.720581,408.971588 
z"/>
<path fill="#FF8F71" opacity="1.000000" stroke="none" 
	d="
M263.238098,179.733337 
	C266.313629,179.866806 269.401855,179.870239 272.461151,180.169495 
	C275.666565,180.483063 277.541779,179.395813 279.033203,176.355484 
	C286.548279,161.035858 296.649841,147.608978 310.050385,136.117859 
	C315.513763,137.369675 320.417053,138.338104 325.033386,140.071060 
	C335.190399,143.884018 345.202423,148.083145 355.055756,152.400604 
	C339.622986,161.946579 327.000366,173.701645 318.593170,189.244095 
	C329.187347,194.585159 339.430237,199.019058 348.902985,204.730347 
	C358.354370,210.428757 367.034088,217.407059 376.516937,224.155014 
	C377.867340,221.989502 379.514099,219.738251 380.761902,217.284149 
	C388.463318,202.137558 389.743225,186.229019 386.500244,169.876953 
	C401.905273,179.998077 414.668610,192.617447 426.989258,205.733871 
	C424.516846,223.488602 416.657745,238.911987 406.023346,252.995010 
	C403.850952,255.871918 403.998840,257.647125 405.796143,260.364197 
	C415.680756,275.307251 423.031403,291.461365 427.864288,308.696533 
	C431.095215,320.218658 427.474854,328.011444 416.975708,333.517395 
	C416.400818,333.818878 415.866577,334.197754 415.080994,334.684662 
	C415.323090,335.814240 415.587433,336.896088 415.784424,337.990021 
	C417.860687,349.519623 412.191711,358.320557 399.713287,362.532898 
	C385.124054,367.457764 370.474518,372.204102 355.433350,376.605804 
	C341.469147,329.325623 299.167664,297.641327 250.680817,298.219238 
	C236.253067,298.391205 222.450867,301.908936 209.025543,306.621826 
	C211.678406,293.258179 213.513184,280.103088 217.187332,267.483490 
	C224.959763,240.787613 237.917969,216.608780 255.428192,194.939087 
	C259.212555,190.255753 263.040802,185.607880 267.084564,180.654999 
	C265.435516,180.259857 264.336792,179.996582 263.238098,179.733337 
M309.130951,304.397064 
	C312.761475,305.401093 315.280426,303.737946 315.822266,300.402008 
	C316.399078,296.850861 316.386749,293.040436 315.706085,289.522308 
	C315.397156,287.925537 313.010864,285.983643 311.279785,285.638550 
	C309.818420,285.347198 307.419556,286.725403 306.354004,288.084564 
	C303.779358,291.368652 305.293457,301.126160 309.130951,304.397064 
z"/>
<path fill="#FF6F4E" opacity="1.000000" stroke="none" 
	d="
M262.752747,179.624756 
	C264.336792,179.996582 265.435516,180.259857 267.084564,180.654999 
	C263.040802,185.607880 259.212555,190.255753 255.428192,194.939087 
	C237.917969,216.608780 224.959763,240.787613 217.187332,267.483490 
	C213.513184,280.103088 211.678406,293.258179 208.881897,306.812531 
	C208.519318,307.670715 208.278122,307.878967 207.685516,308.157166 
	C181.761627,320.241180 163.832855,339.508026 152.995285,365.503174 
	C151.354355,369.439056 149.723816,373.379272 148.088470,377.317505 
	C135.412781,372.886902 122.733459,368.466553 110.063583,364.019318 
	C106.314888,362.703552 102.430466,361.640045 98.891243,359.888977 
	C90.745239,355.858704 86.600670,347.549805 88.587006,338.708618 
	C89.342041,335.347900 88.447609,334.102600 85.642693,332.635010 
	C77.323105,328.282135 73.695763,319.270233 76.101349,310.334381 
	C81.296364,291.036926 89.911308,273.321045 101.043121,256.432220 
	C88.836998,241.651978 80.745499,224.923065 77.451958,205.599365 
	C79.876923,203.012817 81.870918,200.792770 84.115601,198.864578 
	C95.407646,189.164627 106.765137,179.540848 118.088737,170.323120 
	C113.814369,190.040787 116.995071,207.878174 128.352905,224.995651 
	C145.502975,209.210602 164.744537,197.952271 186.483246,189.983490 
	C185.180237,187.865936 184.257828,186.339752 183.309433,184.829910 
	C174.621445,170.998581 162.565796,160.704529 149.145767,151.825592 
	C164.422226,146.306671 179.462021,141.055771 194.501801,135.804886 
	C207.556244,146.817780 217.339890,160.417053 224.867569,175.567581 
	C226.957596,179.774048 229.416458,180.327332 233.372513,180.164520 
	C242.996735,179.768417 252.634842,179.710388 262.752747,179.624756 
M195.645065,285.951782 
	C191.862610,284.564392 189.077042,286.121613 188.390991,289.689850 
	C187.713409,293.214142 187.794067,297.062531 188.473404,300.589355 
	C188.783691,302.200195 191.219925,304.291992 192.895233,304.495941 
	C194.531555,304.695160 196.994278,303.182770 198.089020,301.686340 
	C200.300430,298.663544 198.895233,289.256470 195.645065,285.951782 
z"/>
<path fill="#FEF1D4" opacity="1.000000" stroke="none" 
	d="
M208.029938,308.079132 
	C208.278122,307.878967 208.519318,307.670715 208.897202,307.263672 
	C222.450867,301.908936 236.253067,298.391205 250.680817,298.219238 
	C299.167664,297.641327 341.469147,329.325623 355.058014,376.565857 
	C354.427216,377.778229 353.923401,378.922455 353.054993,379.391083 
	C342.078522,385.314728 331.223572,391.505341 319.979340,396.877930 
	C310.855865,401.237183 301.270294,404.247925 291.286377,406.710022 
	C280.528076,409.363129 269.833130,411.209076 258.940338,411.643768 
	C249.158249,412.034180 239.232346,411.681519 229.558823,410.317078 
	C226.350296,409.864502 223.261215,407.939911 219.336273,408.579285 
	C218.522980,406.588806 218.156967,404.970581 217.655502,403.395447 
	C210.875854,382.100037 206.894867,360.333008 207.034012,337.937073 
	C207.095856,327.982758 207.681870,318.031677 208.029938,308.079132 
M257.829956,334.540039 
	C260.484314,332.836090 263.233429,331.261566 265.773804,329.401947 
	C271.510498,325.202484 271.418701,319.605682 265.668121,315.541443 
	C258.709991,310.623657 245.572311,310.695526 238.683853,315.689056 
	C233.172729,319.684143 233.054001,325.168854 238.517899,329.227783 
	C241.304184,331.297607 244.285095,333.105469 247.018402,335.782684 
	C245.873306,341.971436 242.761124,345.116547 237.870514,345.027344 
	C233.303665,344.944092 230.152298,341.979919 229.204819,336.424622 
	C228.569534,332.699799 226.730209,330.414185 222.894928,331.073212 
	C219.030823,331.737183 218.187225,334.738220 218.592041,338.300140 
	C219.499496,346.284912 225.164215,352.921539 232.939743,355.067871 
	C240.384155,357.122772 246.647705,354.671936 252.257156,349.906738 
	C253.596252,350.906219 254.720535,351.897827 255.982620,352.661774 
	C262.481201,356.595459 269.183502,356.992645 275.873108,353.285492 
	C282.158783,349.802124 285.526947,344.321533 286.003601,337.137146 
	C286.220367,333.869843 284.787262,331.507751 281.475830,331.020294 
	C278.146942,330.530273 276.159424,332.396576 275.447021,335.614197 
	C275.231934,336.585510 275.482544,337.920837 274.916595,338.507324 
	C272.731232,340.771942 270.562805,343.977722 267.886597,344.571075 
	C265.449921,345.111328 261.943329,343.240967 259.709595,341.439606 
	C258.200043,340.222198 258.079773,337.282104 257.829956,334.540039 
z"/>
<path fill="#795358" opacity="1.000000" stroke="none" 
	d="
M118.099640,169.890335 
	C106.765137,179.540848 95.407646,189.164627 84.115601,198.864578 
	C81.870918,200.792770 79.876923,203.012817 77.440712,205.224792 
	C71.256638,169.639862 81.138840,138.683350 105.484474,112.210548 
	C114.021294,102.927849 124.528618,100.149734 136.757248,103.600594 
	C158.400696,109.708267 177.628006,120.136147 194.389069,135.542465 
	C179.462021,141.055771 164.422226,146.306671 148.799011,151.754471 
	C143.840149,149.967911 139.391891,148.127747 135.113937,145.952621 
	C132.063660,144.401703 130.003998,145.203949 128.623184,148.012619 
	C125.053024,155.274551 121.599648,162.593903 118.099640,169.890335 
z"/>
<path fill="#937073" opacity="1.000000" stroke="none" 
	d="
M355.273651,152.124664 
	C345.202423,148.083145 335.190399,143.884018 325.033386,140.071060 
	C320.417053,138.338104 315.513763,137.369675 310.356293,135.976135 
	C324.070221,121.971626 341.050110,112.938362 359.461395,106.059608 
	C382.992432,97.268005 393.404327,103.990685 406.021484,120.406906 
	C424.503967,144.454453 431.989716,171.626846 427.896606,201.827118 
	C427.741577,202.971008 427.681213,204.127716 427.282990,205.506165 
	C414.668610,192.617447 401.905273,179.998077 386.333313,169.564362 
	C382.780151,162.544235 379.672699,155.955048 376.692596,149.308762 
	C374.639679,144.730316 371.632141,144.511749 367.536652,146.634583 
	C363.566986,148.692230 359.370514,150.312363 355.273651,152.124664 
z"/>
<path fill="#FCE3A1" opacity="1.000000" stroke="none" 
	d="
M207.685516,308.157166 
	C207.681870,318.031677 207.095856,327.982758 207.034012,337.937073 
	C206.894867,360.333008 210.875854,382.100037 217.655502,403.395447 
	C218.156967,404.970581 218.522980,406.588806 218.944641,408.573975 
	C206.653107,404.671875 194.040298,401.126068 182.178040,395.882355 
	C170.561340,390.747162 159.709122,383.882599 148.304916,377.547302 
	C149.723816,373.379272 151.354355,369.439056 152.995285,365.503174 
	C163.832855,339.508026 181.761627,320.241180 207.685516,308.157166 
z"/>
<path fill="#FFDBDF" opacity="1.000000" stroke="none" 
	d="
M355.055756,152.400604 
	C359.370514,150.312363 363.566986,148.692230 367.536652,146.634583 
	C371.632141,144.511749 374.639679,144.730316 376.692596,149.308762 
	C379.672699,155.955048 382.780151,162.544235 386.000244,169.470367 
	C389.743225,186.229019 388.463318,202.137558 380.761902,217.284149 
	C379.514099,219.738251 377.867340,221.989502 376.516937,224.155014 
	C367.034088,217.407059 358.354370,210.428757 348.902985,204.730347 
	C339.430237,199.019058 329.187347,194.585159 318.593170,189.244095 
	C327.000366,173.701645 339.622986,161.946579 355.055756,152.400604 
z"/>
<path fill="#373F42" opacity="1.000000" stroke="none" 
	d="
M308.779480,304.245911 
	C305.293457,301.126160 303.779358,291.368652 306.354004,288.084564 
	C307.419556,286.725403 309.818420,285.347198 311.279785,285.638550 
	C313.010864,285.983643 315.397156,287.925537 315.706085,289.522308 
	C316.386749,293.040436 316.399078,296.850861 315.822266,300.402008 
	C315.280426,303.737946 312.761475,305.401093 308.779480,304.245911 
z"/>
<path fill="#FFB5BF" opacity="1.000000" stroke="none" 
	d="
M118.088737,170.323120 
	C121.599648,162.593903 125.053024,155.274551 128.623184,148.012619 
	C130.003998,145.203949 132.063660,144.401703 135.113937,145.952621 
	C139.391891,148.127747 143.840149,149.967911 148.562317,152.022491 
	C162.565796,160.704529 174.621445,170.998581 183.309433,184.829910 
	C184.257828,186.339752 185.180237,187.865936 186.483246,189.983490 
	C164.744537,197.952271 145.502975,209.210602 128.352905,224.995651 
	C116.995071,207.878174 113.814369,190.040787 118.088737,170.323120 
z"/>
<path fill="#393F40" opacity="1.000000" stroke="none" 
	d="
M195.981384,286.125854 
	C198.895233,289.256470 200.300430,298.663544 198.089020,301.686340 
	C196.994278,303.182770 194.531555,304.695160 192.895233,304.495941 
	C191.219925,304.291992 188.783691,302.200195 188.473404,300.589355 
	C187.794067,297.062531 187.713409,293.214142 188.390991,289.689850 
	C189.077042,286.121613 191.862610,284.564392 195.981384,286.125854 
z"/>
<path fill="#343F42" opacity="1.000000" stroke="none" 
	d="
M257.338074,335.112549 
	C258.079773,337.282104 258.200043,340.222198 259.709595,341.439606 
	C261.943329,343.240967 265.449921,345.111328 267.886597,344.571075 
	C270.562805,343.977722 272.731232,340.771942 274.916595,338.507324 
	C275.482544,337.920837 275.231934,336.585510 275.447021,335.614197 
	C276.159424,332.396576 278.146942,330.530273 281.475830,331.020294 
	C284.787262,331.507751 286.220367,333.869843 286.003601,337.137146 
	C285.526947,344.321533 282.158783,349.802124 275.873108,353.285492 
	C269.183502,356.992645 262.481201,356.595459 255.982620,352.661774 
	C254.720535,351.897827 253.596252,350.906219 252.257156,349.906738 
	C246.647705,354.671936 240.384155,357.122772 232.939743,355.067871 
	C225.164215,352.921539 219.499496,346.284912 218.592041,338.300140 
	C218.187225,334.738220 219.030823,331.737183 222.894928,331.073212 
	C226.730209,330.414185 228.569534,332.699799 229.204819,336.424622 
	C230.152298,341.979919 233.303665,344.944092 237.870514,345.027344 
	C242.761124,345.116547 245.873306,341.971436 247.449142,335.450073 
	C251.033844,337.489014 254.186203,336.780457 257.338074,335.112549 
z"/>
<path fill="#785358" opacity="1.000000" stroke="none" 
	d="
M257.584015,334.826294 
	C254.186203,336.780457 251.033844,337.489014 247.528961,335.074585 
	C244.285095,333.105469 241.304184,331.297607 238.517899,329.227783 
	C233.054001,325.168854 233.172729,319.684143 238.683853,315.689056 
	C245.572311,310.695526 258.709991,310.623657 265.668121,315.541443 
	C271.418701,319.605682 271.510498,325.202484 265.773804,329.401947 
	C263.233429,331.261566 260.484314,332.836090 257.584015,334.826294 
z"/>
</svg>