<svg version="1.1" id="Layer_1" xmlns="http://www.w3.org/2000/svg" xmlns:xlink="http://www.w3.org/1999/xlink" x="0px" y="0px"
	 width="100%" viewBox="0 0 498 495" enable-background="new 0 0 498 495" xml:space="preserve">
<path fill="#FFFFFF" opacity="1.000000" stroke="none" 
	d="
M281.000000,496.000000 
	C187.333359,496.000000 94.166710,496.000000 1.000050,496.000000 
	C1.000033,331.000061 1.000033,166.000122 1.000017,1.000139 
	C166.999893,1.000092 332.999786,1.000092 498.999756,1.000046 
	C498.999847,165.999863 498.999847,330.999725 498.999939,495.999786 
	C426.500000,496.000000 354.000000,496.000000 281.000000,496.000000 
M267.211517,7.008225 
	C250.298477,7.667344 233.248672,7.226425 216.512390,9.307299 
	C201.011627,11.234557 185.429916,14.613274 170.621994,19.561670 
	C142.060638,29.106081 115.539345,43.048237 93.094887,63.492630 
	C80.983566,74.524689 69.246796,86.123924 58.549286,98.510735 
	C46.481167,112.484566 37.473995,128.636185 29.254606,145.238327 
	C13.350227,177.363235 6.568067,211.644028 5.250584,247.035004 
	C4.748825,260.513519 6.328463,274.205902 8.273281,287.610199 
	C12.114421,314.084564 20.666990,339.225159 33.073013,362.901398 
	C47.235947,389.930603 65.791756,413.544067 88.946571,433.629822 
	C108.847008,450.892487 130.803986,464.698944 154.977982,474.920624 
	C184.957382,487.596985 216.345016,493.839752 248.902023,493.941742 
	C255.027603,493.960968 261.154541,493.322205 267.281982,493.010223 
	C286.258789,492.044037 304.715729,488.295715 322.792145,482.570709 
	C348.194702,474.525482 371.554718,462.434204 393.175903,446.910187 
	C408.399414,435.979645 421.934753,423.057770 434.075165,408.981873 
	C450.834259,389.551056 464.233246,367.851227 474.165405,343.962921 
	C485.250854,317.300812 491.189545,289.599091 492.884064,260.956543 
	C493.965057,242.684357 492.191833,224.507553 489.023987,206.464142 
	C485.092072,184.068497 478.037781,162.661209 467.995270,142.347275 
	C459.974243,126.122475 450.233765,110.928391 438.670258,96.847565 
	C426.360443,81.857941 412.544067,68.558563 397.335571,56.632370 
	C381.294586,44.053398 363.893036,33.616077 344.960968,26.168495 
	C331.731323,20.964142 318.082245,16.576250 304.297180,13.109364 
	C292.487122,10.139185 280.217773,8.995145 267.211517,7.008225 
z"/>
<path fill="#D5E6FE" opacity="1.000000" stroke="none" 
	d="
M267.681519,7.025848 
	C280.217773,8.995145 292.487122,10.139185 304.297180,13.109364 
	C318.082245,16.576250 331.731323,20.964142 344.960968,26.168495 
	C363.893036,33.616077 381.294586,44.053398 397.335571,56.632370 
	C412.544067,68.558563 426.360443,81.857941 438.670258,96.847565 
	C450.233765,110.928391 459.974243,126.122475 467.995270,142.347275 
	C478.037781,162.661209 485.092072,184.068497 489.023987,206.464142 
	C492.191833,224.507553 493.965057,242.684357 492.884064,260.956543 
	C491.189545,289.599091 485.250854,317.300812 474.165405,343.962921 
	C464.233246,367.851227 450.834259,389.551056 434.075165,408.981873 
	C421.934753,423.057770 408.399414,435.979645 393.175903,446.910187 
	C371.554718,462.434204 348.194702,474.525482 322.792145,482.570709 
	C304.715729,488.295715 286.258789,492.044037 267.281982,493.010223 
	C261.154541,493.322205 255.027603,493.960968 248.902023,493.941742 
	C216.345016,493.839752 184.957382,487.596985 154.977982,474.920624 
	C130.803986,464.698944 108.847008,450.892487 88.946571,433.629822 
	C65.791756,413.544067 47.235947,389.930603 33.073013,362.901398 
	C20.666990,339.225159 12.114421,314.084564 8.273281,287.610199 
	C6.328463,274.205902 4.748825,260.513519 5.250584,247.035004 
	C6.568067,211.644028 13.350227,177.363235 29.254606,145.238327 
	C37.473995,128.636185 46.481167,112.484566 58.549286,98.510735 
	C69.246796,86.123924 80.983566,74.524689 93.094887,63.492630 
	C115.539345,43.048237 142.060638,29.106081 170.621994,19.561670 
	C185.429916,14.613274 201.011627,11.234557 216.512390,9.307299 
	C233.248672,7.226425 250.298477,7.667344 267.681519,7.025848 
M374.053375,338.434814 
	C369.547974,327.014923 365.892578,315.162720 360.352661,304.268921 
	C350.153717,284.213715 334.656494,269.424561 313.317169,261.083191 
	C294.369324,253.676666 274.401581,252.656036 254.598083,252.379654 
	C238.629623,252.156784 222.473083,253.808640 206.669540,256.322998 
	C187.145096,259.429413 170.103683,268.645233 156.576584,283.217438 
	C146.085800,294.518768 138.333664,307.787109 133.113953,322.330627 
	C128.934662,333.975250 123.771141,345.234558 123.805443,358.218872 
	C123.881203,386.890625 149.380463,410.055756 177.058350,410.688690 
	C224.357468,411.770294 271.699280,411.010834 319.023041,410.942230 
	C322.974762,410.936493 327.003754,410.691040 330.864532,409.906097 
	C363.937866,403.182007 385.486816,374.118591 374.053375,338.434814 
M200.569321,100.013206 
	C176.683502,122.794586 167.598648,150.022339 178.029099,181.872177 
	C187.720383,211.464951 209.482162,229.067291 239.663223,233.514084 
	C266.048767,237.401688 289.479919,228.699051 307.600647,207.996597 
	C324.805267,188.340759 329.243774,165.512711 324.252502,140.550858 
	C320.911072,123.840096 312.056641,110.221916 298.897308,99.363213 
	C279.636353,83.469650 257.676056,78.986282 233.509399,83.689835 
	C221.296524,86.066811 210.844177,92.082184 200.569321,100.013206 
z"/>
<path fill="#90BCFB" opacity="1.000000" stroke="none" 
	d="
M374.138794,338.835022 
	C385.486816,374.118591 363.937866,403.182007 330.864532,409.906097 
	C327.003754,410.691040 322.974762,410.936493 319.023041,410.942230 
	C271.699280,411.010834 224.357468,411.770294 177.058350,410.688690 
	C149.380463,410.055756 123.881203,386.890625 123.805443,358.218872 
	C123.771141,345.234558 128.934662,333.975250 133.113953,322.330627 
	C138.333664,307.787109 146.085800,294.518768 156.576584,283.217438 
	C170.103683,268.645233 187.145096,259.429413 206.669540,256.322998 
	C222.473083,253.808640 238.629623,252.156784 254.598083,252.379654 
	C274.401581,252.656036 294.369324,253.676666 313.317169,261.083191 
	C334.656494,269.424561 350.153717,284.213715 360.352661,304.268921 
	C365.892578,315.162720 369.547974,327.014923 374.138794,338.835022 
z"/>
<path fill="#90BCFB" opacity="1.000000" stroke="none" 
	d="
M200.844482,99.786964 
	C210.844177,92.082184 221.296524,86.066811 233.509399,83.689835 
	C257.676056,78.986282 279.636353,83.469650 298.897308,99.363213 
	C312.056641,110.221916 320.911072,123.840096 324.252502,140.550858 
	C329.243774,165.512711 324.805267,188.340759 307.600647,207.996597 
	C289.479919,228.699051 266.048767,237.401688 239.663223,233.514084 
	C209.482162,229.067291 187.720383,211.464951 178.029099,181.872177 
	C167.598648,150.022339 176.683502,122.794586 200.844482,99.786964 
z"/>
</svg>