<svg version="1.1" id="Layer_1" xmlns="http://www.w3.org/2000/svg" xmlns:xlink="http://www.w3.org/1999/xlink" x="0px" y="0px"
	 width="100%" viewBox="0 0 512 512" enable-background="new 0 0 512 512" xml:space="preserve">
<path fill="#FFFFFF" opacity="1.000000" stroke="none" 
	d="
M513.000000,203.000000 
	C513.000000,306.641479 513.000000,409.782959 513.000000,512.962219 
	C342.400177,512.962219 171.800339,512.962219 1.100256,512.962219 
	C1.100256,342.441895 1.100256,171.883682 1.100256,1.162741 
	C171.666534,1.162741 342.333252,1.162741 513.000000,1.162741 
	C513.000000,68.199615 513.000000,135.349808 513.000000,203.000000 
M505.975098,281.241577 
	C506.309418,276.782257 507.106995,272.300781 506.894684,267.867645 
	C506.133850,251.983658 505.678406,236.043655 503.912354,220.258530 
	C500.949615,193.777710 492.437927,168.767548 480.401917,145.126083 
	C466.135040,117.102562 447.638275,92.145119 423.847321,71.282372 
	C409.061432,58.316330 393.226257,46.902641 375.962677,37.491337 
	C345.225220,20.734684 312.204803,10.949477 277.486633,8.326728 
	C254.033829,6.555010 230.455170,7.702573 207.145294,12.664708 
	C179.911987,18.462057 154.369675,28.182306 130.395676,42.256390 
	C105.798973,56.696037 84.349106,74.917793 66.031883,96.666145 
	C51.548801,113.862152 39.761517,132.889038 30.277113,153.339325 
	C17.288149,181.346161 9.781106,210.797180 8.189778,241.519363 
	C7.135114,261.880737 7.950809,282.250305 11.777346,302.502502 
	C17.773333,334.236694 29.157059,363.694763 46.377125,390.949738 
	C59.976208,412.473633 76.970253,430.986633 96.099564,447.712799 
	C111.603004,461.268646 128.808212,472.276520 147.112656,481.336334 
	C177.765274,496.507904 210.469055,505.278137 244.610443,506.647095 
	C262.405182,507.360626 280.526062,506.128113 298.151825,503.469238 
	C327.058594,499.108612 354.325623,489.192505 379.871033,474.645599 
	C410.032471,457.470123 435.704559,435.193115 456.575562,407.559357 
	C477.560516,379.774811 492.317261,348.880402 500.093140,314.864899 
	C502.557953,304.082520 504.017578,293.070343 505.975098,281.241577 
z"/>
<path fill="#FFE7D1" opacity="1.000000" stroke="none" 
	d="
M505.956146,281.702454 
	C504.017578,293.070343 502.557953,304.082520 500.093140,314.864899 
	C492.317261,348.880402 477.560516,379.774811 456.575562,407.559357 
	C435.704559,435.193115 410.032471,457.470123 379.871033,474.645599 
	C354.325623,489.192505 327.058594,499.108612 298.151825,503.469238 
	C280.526062,506.128113 262.405182,507.360626 244.610443,506.647095 
	C210.469055,505.278137 177.765274,496.507904 147.112656,481.336334 
	C128.808212,472.276520 111.603004,461.268646 96.099564,447.712799 
	C76.970253,430.986633 59.976208,412.473633 46.377125,390.949738 
	C29.157059,363.694763 17.773333,334.236694 11.777346,302.502502 
	C7.950809,282.250305 7.135114,261.880737 8.189778,241.519363 
	C9.781106,210.797180 17.288149,181.346161 30.277113,153.339325 
	C39.761517,132.889038 51.548801,113.862152 66.031883,96.666145 
	C84.349106,74.917793 105.798973,56.696037 130.395676,42.256390 
	C154.369675,28.182306 179.911987,18.462057 207.145294,12.664708 
	C230.455170,7.702573 254.033829,6.555010 277.486633,8.326728 
	C312.204803,10.949477 345.225220,20.734684 375.962677,37.491337 
	C393.226257,46.902641 409.061432,58.316330 423.847321,71.282372 
	C447.638275,92.145119 466.135040,117.102562 480.401917,145.126083 
	C492.437927,168.767548 500.949615,193.777710 503.912354,220.258530 
	C505.678406,236.043655 506.133850,251.983658 506.894684,267.867645 
	C507.106995,272.300781 506.309418,276.782257 505.956146,281.702454 
M178.171249,97.714149 
	C169.538757,89.788506 160.178177,82.940880 149.196716,78.603996 
	C133.002533,72.208488 120.737816,76.934113 113.279633,92.548927 
	C107.580246,104.481438 105.914322,117.395401 105.324638,130.365097 
	C103.845634,162.894730 107.601715,195.028137 113.331024,227.654175 
	C113.157532,229.576813 113.251053,231.570679 112.760651,233.408768 
	C111.268150,239.002747 109.231339,244.465775 107.978500,250.106827 
	C103.811272,268.870239 99.839302,287.669708 91.608131,305.226288 
	C91.082397,306.347687 91.187233,307.764679 91.031487,309.016357 
	C91.031487,309.016357 91.028671,308.973053 90.428940,308.795380 
	C90.227547,308.849365 90.026161,308.903381 89.335342,309.422913 
	C87.122208,314.579590 84.995041,319.775696 82.655174,324.874207 
	C81.669830,327.021179 80.235405,328.962067 78.999855,331.000000 
	C78.999855,331.000000 78.994324,331.006104 78.415894,331.436798 
	C77.610847,336.310181 76.042023,341.209106 76.203987,346.050140 
	C76.385551,351.476929 78.000183,356.881683 79.224709,362.242706 
	C82.548691,376.795288 91.982063,386.483521 104.460121,393.782654 
	C109.409088,396.677582 114.157295,399.915680 118.719185,403.110168 
	C118.813622,403.074524 118.908051,403.038879 119.747429,403.011200 
	C120.784157,403.435272 121.906433,403.722626 122.842171,404.308105 
	C126.143990,406.373901 129.187195,408.970947 132.693573,410.561890 
	C137.023071,412.526306 141.777023,413.532623 146.230118,415.256348 
	C148.611832,416.178253 150.746719,417.737732 153.173950,419.345520 
	C153.450119,419.231445 153.726288,419.117371 154.750763,419.007202 
	C158.413757,420.312653 162.076767,421.618103 165.739761,422.923523 
	C166.480347,423.804626 167.674042,424.650452 168.989197,424.935059 
	C175.105911,426.258728 181.287872,427.292999 187.375488,428.731415 
	C189.234940,429.170807 190.868027,430.568176 192.717133,431.588806 
	C195.109802,428.428802 197.550980,431.282654 200.029388,432.145599 
	C201.520218,432.664673 202.926605,433.840607 204.405853,433.903778 
	C209.571167,434.124390 214.751678,433.989197 220.076294,433.989197 
	C219.537720,434.893982 219.188019,435.481476 218.838333,436.068970 
	C219.571945,436.367218 220.730042,437.123871 220.976318,436.895813 
	C225.591370,432.622406 231.062485,435.481232 235.318649,436.391205 
	C254.308151,440.451111 273.011749,436.069794 291.822601,435.804749 
	C292.225891,435.799042 292.621857,435.271332 293.930115,434.992920 
	C297.714325,434.651855 301.525482,434.493286 305.278107,433.938599 
	C323.152618,431.296570 340.456451,426.329620 357.383820,420.190277 
	C375.999481,413.438660 393.629730,404.583099 410.600220,394.308472 
	C421.030060,387.993805 429.320648,380.023163 433.909607,368.691742 
	C440.424835,352.603668 439.206238,336.950897 430.465393,321.904572 
	C428.563751,318.631104 426.809753,315.271881 424.862335,311.383911 
	C424.564911,310.909241 424.267487,310.434570 424.023987,309.979187 
	C424.023987,309.979187 424.025238,310.036438 423.935822,309.305908 
	C420.219818,299.186401 415.948181,289.229523 412.927094,278.906647 
	C409.067719,265.719543 406.153931,252.252274 402.969849,238.873077 
	C401.963654,234.645096 401.397827,230.312332 400.878998,225.218170 
	C406.440186,194.071579 410.307831,162.732910 408.591187,131.052261 
	C408.003540,120.207008 406.083740,109.205376 403.067444,98.767952 
	C396.825958,77.170181 380.960693,70.254601 360.925476,80.400192 
	C352.138550,84.849785 344.455811,91.479912 335.721680,97.520073 
	C323.448364,110.612595 311.175049,123.705116 298.098114,136.992096 
	C296.952789,136.888260 295.763214,136.949539 294.668701,136.656143 
	C274.203156,131.170273 253.531250,130.475372 232.673584,133.895966 
	C226.843872,134.852020 221.016907,135.824951 214.942429,136.170059 
	C204.038498,124.430977 193.159515,112.668465 182.191177,100.989876 
	C181.121124,99.850525 179.500198,99.228561 178.171249,97.714149 
z"/>
<path fill="#FFF2DE" opacity="1.000000" stroke="none" 
	d="
M424.987762,311.952148 
	C426.809753,315.271881 428.563751,318.631104 430.465393,321.904572 
	C439.206238,336.950897 440.424835,352.603668 433.909607,368.691742 
	C429.320648,380.023163 421.030060,387.993805 410.600220,394.308472 
	C393.629730,404.583099 375.999481,413.438660 357.383820,420.190277 
	C340.456451,426.329620 323.152618,431.296570 305.278107,433.938599 
	C301.525482,434.493286 297.714325,434.651855 293.252502,434.704346 
	C290.573364,433.640961 288.624664,432.663727 286.561523,432.125061 
	C275.525726,429.243744 264.296295,426.992889 253.440613,423.555267 
	C229.776886,416.061859 207.607040,405.171875 186.741318,391.784912 
	C166.230789,378.625854 157.659439,351.916321 167.386765,329.341064 
	C170.598267,321.887817 174.823730,314.875702 178.153748,307.467773 
	C180.436249,302.390137 181.972504,296.977020 184.056519,291.470215 
	C185.373337,290.195465 186.476013,289.164398 187.914734,288.154572 
	C192.987869,284.819244 197.781296,281.539032 202.452774,278.093506 
	C229.745575,257.963348 259.590576,254.449966 290.741913,266.420929 
	C301.370544,270.505341 311.096069,277.727783 320.189911,284.849884 
	C337.727325,298.584717 356.418121,302.509888 377.754791,295.767975 
	C391.507446,291.422394 404.399963,294.387177 415.861420,303.152435 
	C418.685730,305.312378 421.309357,307.734711 424.025238,310.036438 
	C424.025238,310.036438 424.023987,309.979187 424.019501,310.263641 
	C424.339264,311.016113 424.663513,311.484131 424.987762,311.952148 
M267.266754,289.628723 
	C256.270538,288.124207 245.377686,288.733002 234.695312,291.693085 
	C218.656418,296.137451 215.993805,305.221436 226.854294,317.839172 
	C233.574036,325.646179 241.929932,330.707184 251.972885,333.707947 
	C250.811157,340.775635 248.499756,347.266022 242.444931,351.710754 
	C232.905807,358.713257 221.904022,358.345734 212.191437,350.638275 
	C209.169968,348.240570 206.302216,346.468262 203.225433,350.298584 
	C200.316696,353.919708 202.727264,356.367767 205.267929,358.776398 
	C214.136749,367.184296 230.275711,370.030029 241.093979,364.302338 
	C246.948929,361.202484 252.118454,356.807983 257.897797,352.788452 
	C258.071777,353.006073 258.769989,353.878174 259.467133,354.751160 
	C271.582367,369.921875 297.366669,371.324249 309.998962,357.499390 
	C313.143555,354.057953 312.370483,349.194763 308.199249,348.433990 
	C306.314148,348.090179 303.752686,349.350342 302.030182,350.610199 
	C296.648010,354.546936 290.936127,357.700256 284.139801,356.461060 
	C269.987183,353.880524 264.306549,347.588806 262.490570,332.661407 
	C262.977478,332.406372 263.464355,332.151337 264.718689,331.920685 
	C276.443237,328.979492 285.248322,322.053864 291.141968,311.675629 
	C295.776154,303.515259 293.869629,297.515259 285.231506,294.092712 
	C279.800140,291.940735 273.774170,291.289429 267.266754,289.628723 
z"/>
<path fill="#FFAC5A" opacity="1.000000" stroke="none" 
	d="
M423.980530,309.671173 
	C421.309357,307.734711 418.685730,305.312378 415.861420,303.152435 
	C404.399963,294.387177 391.507446,291.422394 377.754791,295.767975 
	C356.418121,302.509888 337.727325,298.584717 320.189911,284.849884 
	C311.096069,277.727783 301.370544,270.505341 290.741913,266.420929 
	C259.590576,254.449966 229.745575,257.963348 202.452774,278.093506 
	C197.781296,281.539032 192.987869,284.819244 187.571747,288.011353 
	C186.966736,286.812805 186.900543,285.745392 187.136963,284.749878 
	C188.981400,276.982391 190.884033,269.228729 192.992615,261.193420 
	C193.870514,256.950775 194.524475,252.985565 195.418488,248.755386 
	C198.149368,240.503525 200.640182,232.516617 203.380859,224.369202 
	C209.377060,220.732269 211.991806,215.734833 211.323608,208.842041 
	C211.870041,208.462402 212.182175,208.277527 212.345581,208.003830 
	C231.063370,176.654648 257.320496,154.327515 291.640259,141.594086 
	C294.185730,140.649643 296.552582,139.223862 299.376770,138.063477 
	C310.826630,142.891922 321.919922,147.638367 332.966064,152.492096 
	C335.973297,153.813507 338.838531,155.458145 341.930420,157.266251 
	C356.559753,168.176651 369.932861,179.899551 380.400543,194.643600 
	C380.845978,195.271011 382.007843,195.389771 382.892578,196.132278 
	C382.983429,196.849426 382.922424,197.229752 383.065704,197.502945 
	C387.976196,206.867493 392.874786,216.238861 397.917999,225.531693 
	C398.192993,226.038406 399.697998,225.877609 400.630463,226.027512 
	C401.397827,230.312332 401.963654,234.645096 402.969849,238.873077 
	C406.153931,252.252274 409.067719,265.719543 412.927094,278.906647 
	C415.948181,289.229523 420.219818,299.186401 423.980530,309.671173 
M316.545624,226.075714 
	C326.681519,228.159698 338.345795,223.438904 343.519592,215.158752 
	C348.392883,207.359497 345.683289,198.520187 337.178253,194.950699 
	C328.149475,191.161362 319.600739,192.619278 311.601257,197.883957 
	C305.806519,201.697647 301.983246,206.898102 303.135468,214.125351 
	C304.234192,221.016891 309.254913,224.435486 316.545624,226.075714 
M323.616425,242.987976 
	C322.129120,244.374557 319.714539,245.555649 319.352020,247.191498 
	C318.647217,250.371704 318.471283,253.970184 319.285583,257.078613 
	C319.815765,259.102417 322.458099,261.888519 324.195068,261.917908 
	C326.004730,261.948486 328.659485,259.405975 329.490143,257.389343 
	C330.432739,255.101013 329.785217,252.148010 329.786438,249.483948 
	C329.788116,245.850449 328.328033,243.387665 323.616425,242.987976 
z"/>
<path fill="#FC9943" opacity="1.000000" stroke="none" 
	d="
M299.002441,138.021851 
	C296.552582,139.223862 294.185730,140.649643 291.640259,141.594086 
	C257.320496,154.327515 231.063370,176.654648 212.345581,208.003830 
	C212.182175,208.277527 211.870041,208.462402 211.160797,208.531815 
	C206.056320,197.303268 192.998215,190.667435 181.254181,193.507736 
	C175.091812,194.998108 170.052017,198.104355 168.461075,204.667358 
	C166.908157,211.073517 169.984695,216.104752 174.676727,219.959290 
	C183.179214,226.944092 192.758606,228.531937 203.130997,224.529709 
	C200.640182,232.516617 198.149368,240.503525 195.328247,248.384918 
	C194.517242,244.873947 192.749039,242.643723 189.128143,243.055786 
	C185.286560,243.492981 184.120193,246.297745 184.191132,249.824799 
	C184.227554,251.634872 184.158188,253.447296 184.206009,255.256836 
	C184.363815,261.227814 186.912338,263.066498 192.768677,261.470795 
	C190.884033,269.228729 188.981400,276.982391 187.136963,284.749878 
	C186.900543,285.745392 186.966736,286.812805 187.235703,287.990112 
	C186.476013,289.164398 185.373337,290.195465 183.710815,291.568390 
	C168.711594,300.511078 153.607925,300.273743 137.816269,296.207794 
	C131.385132,294.551941 124.357460,294.262848 117.688576,294.696259 
	C106.851044,295.400543 98.610207,301.849701 90.998734,309.044159 
	C91.187233,307.764679 91.082397,306.347687 91.608131,305.226288 
	C99.839302,287.669708 103.811272,268.870239 107.978500,250.106827 
	C109.231339,244.465775 111.268150,239.002747 112.760651,233.408768 
	C113.251053,231.570679 113.157532,229.576813 113.729393,227.244507 
	C117.389046,220.956070 120.672737,215.089584 123.904251,209.194489 
	C126.344505,204.742844 128.718048,200.254639 131.455185,195.825531 
	C132.416931,195.394821 133.129669,195.000931 133.659927,194.435822 
	C141.896225,185.657974 149.916931,176.666672 158.409119,168.144882 
	C162.567429,163.972076 167.591812,160.662338 172.562134,156.921600 
	C183.237640,151.755737 193.546112,146.570175 203.928543,141.537186 
	C207.588837,139.762817 211.430069,138.361679 215.188690,136.790131 
	C221.016907,135.824951 226.843872,134.852020 232.673584,133.895966 
	C253.531250,130.475372 274.203156,131.170273 294.668701,136.656143 
	C295.763214,136.949539 296.952789,136.888260 298.533936,137.200531 
	C298.980621,137.613235 298.991547,137.817535 299.002441,138.021851 
z"/>
<path fill="#FFE4C2" opacity="1.000000" stroke="none" 
	d="
M91.015106,309.030273 
	C98.610207,301.849701 106.851044,295.400543 117.688576,294.696259 
	C124.357460,294.262848 131.385132,294.551941 137.816269,296.207794 
	C153.607925,300.273743 168.711594,300.511078 183.496658,291.812042 
	C181.972504,296.977020 180.436249,302.390137 178.153748,307.467773 
	C174.823730,314.875702 170.598267,321.887817 167.386765,329.341064 
	C157.659439,351.916321 166.230789,378.625854 186.741318,391.784912 
	C207.607040,405.171875 229.776886,416.061859 253.440613,423.555267 
	C264.296295,426.992889 275.525726,429.243744 286.561523,432.125061 
	C288.624664,432.663727 290.573364,433.640961 292.798035,434.701416 
	C292.621857,435.271332 292.225891,435.799042 291.822601,435.804749 
	C273.011749,436.069794 254.308151,440.451111 235.318649,436.391205 
	C231.062485,435.481232 225.591370,432.622406 220.976318,436.895813 
	C220.730042,437.123871 219.571945,436.367218 218.838318,436.068970 
	C219.188019,435.481476 219.537720,434.893982 220.076294,433.989197 
	C214.751678,433.989197 209.571167,434.124390 204.405853,433.903778 
	C202.926605,433.840607 201.520218,432.664673 200.029388,432.145599 
	C197.550980,431.282654 195.109802,428.428802 192.717133,431.588806 
	C190.868027,430.568176 189.234940,429.170807 187.375488,428.731415 
	C181.287872,427.292999 175.105911,426.258728 168.989197,424.935059 
	C167.674042,424.650452 166.480347,423.804626 165.739761,422.923523 
	C162.076767,421.618103 158.413757,420.312653 154.375381,419.003601 
	C154.000000,419.000000 153.995636,418.996674 153.910889,418.827332 
	C153.554947,418.768860 153.283752,418.879730 153.007446,418.994446 
	C153.002335,418.998260 152.993011,419.009430 152.993011,419.009460 
	C150.746719,417.737732 148.611832,416.178253 146.230118,415.256348 
	C141.777023,413.532623 137.023071,412.526306 132.693573,410.561890 
	C129.187195,408.970947 126.143990,406.373901 122.842171,404.308105 
	C121.906433,403.722626 120.784157,403.435272 119.373718,403.005615 
	C119.000000,403.000000 118.996902,402.997528 118.996902,402.997528 
	C114.157295,399.915680 109.409088,396.677582 104.460121,393.782654 
	C91.982063,386.483521 82.548691,376.795288 79.224709,362.242706 
	C78.000183,356.881683 76.385551,351.476929 76.203987,346.050140 
	C76.042023,341.209106 77.610847,336.310181 78.709015,331.518158 
	C79.087021,332.124756 79.171898,332.649963 79.256775,333.175201 
	C79.468460,333.106689 79.680145,333.038208 79.891830,332.969696 
	C79.596268,332.312012 79.300697,331.654327 79.005142,330.996643 
	C80.235405,328.962067 81.669830,327.021179 82.655174,324.874207 
	C84.995041,319.775696 87.122208,314.579590 89.700394,309.398315 
	C90.386513,309.240173 90.707596,309.106628 91.028671,308.973053 
	C91.028671,308.973053 91.031487,309.016357 91.015106,309.030273 
M159.407074,420.482086 
	C159.407074,420.482086 159.524323,420.411469 159.407074,420.482086 
z"/>
<path fill="#FC9A43" opacity="1.000000" stroke="none" 
	d="
M400.754730,225.622833 
	C399.697998,225.877609 398.192993,226.038406 397.917999,225.531693 
	C392.874786,216.238861 387.976196,206.867493 383.065704,197.502945 
	C382.922424,197.229752 382.983429,196.849426 382.878632,195.706284 
	C383.332672,189.095901 384.186584,183.305847 384.319885,177.499252 
	C384.716431,160.228256 384.961273,142.950806 384.967194,125.675774 
	C384.968811,120.966911 382.188690,117.579361 377.573212,116.029327 
	C373.119781,114.533707 369.363953,115.898697 366.241913,119.135948 
	C364.404327,121.041283 362.800842,123.172371 360.867737,124.906761 
	C360.334839,124.518875 360.005066,124.302460 359.720703,124.351143 
	C345.093475,126.856056 335.793243,118.999313 336.007629,104.275139 
	C336.042358,101.889290 336.181061,99.504951 336.271667,97.119919 
	C344.455811,91.479912 352.138550,84.849785 360.925476,80.400192 
	C380.960693,70.254601 396.825958,77.170181 403.067444,98.767952 
	C406.083740,109.205376 408.003540,120.207008 408.591187,131.052261 
	C410.307831,162.732910 406.440186,194.071579 400.754730,225.622833 
z"/>
<path fill="#FF883D" opacity="1.000000" stroke="none" 
	d="
M131.121277,195.782700 
	C128.718048,200.254639 126.344505,204.742844 123.904251,209.194489 
	C120.672737,215.089584 117.389046,220.956070 113.818695,226.895813 
	C107.601715,195.028137 103.845634,162.894730 105.324638,130.365097 
	C105.914322,117.395401 107.580246,104.481438 113.279633,92.548927 
	C120.737816,76.934113 133.002533,72.208488 149.196716,78.603996 
	C160.178177,82.940880 169.538757,89.788506 178.109100,98.551659 
	C178.032669,101.703308 178.010315,104.017433 178.005600,106.331589 
	C177.988922,114.519585 174.080231,121.254257 166.439941,123.469727 
	C161.942688,124.773796 156.811661,123.892265 151.725128,123.764954 
	C150.537140,122.381439 149.620590,121.199608 148.636627,120.076866 
	C145.315216,116.286972 141.352722,114.298477 136.269531,116.083908 
	C131.257812,117.844231 129.123138,121.671028 128.895462,126.793419 
	C128.637909,132.587570 127.873001,138.400574 128.135498,144.168655 
	C128.918930,161.382980 130.097214,178.579330 131.121277,195.782700 
z"/>
<path fill="#FF883D" opacity="1.000000" stroke="none" 
	d="
M335.996674,97.319992 
	C336.181061,99.504951 336.042358,101.889290 336.007629,104.275139 
	C335.793243,118.999313 345.093475,126.856056 359.720703,124.351143 
	C360.005066,124.302460 360.334839,124.518875 360.741516,125.214233 
	C354.482727,136.196060 348.125824,146.575241 341.768921,156.954437 
	C338.838531,155.458145 335.973297,153.813507 332.966064,152.492096 
	C321.919922,147.638367 310.826630,142.891922 299.376770,138.063477 
	C298.991547,137.817535 298.980621,137.613235 298.935730,137.103302 
	C311.175049,123.705116 323.448364,110.612595 335.996674,97.319992 
z"/>
<path fill="#FA742E" opacity="1.000000" stroke="none" 
	d="
M151.965683,123.993729 
	C156.811661,123.892265 161.942688,124.773796 166.439941,123.469727 
	C174.080231,121.254257 177.988922,114.519585 178.005600,106.331589 
	C178.010315,104.017433 178.032669,101.703308 178.090942,98.877808 
	C179.500198,99.228561 181.121124,99.850525 182.191177,100.989876 
	C193.159515,112.668465 204.038498,124.430977 215.065552,136.480103 
	C211.430069,138.361679 207.588837,139.762817 203.928543,141.537186 
	C193.546112,146.570175 183.237640,151.755737 172.391266,156.609909 
	C165.243546,145.556976 158.604614,134.775345 151.965683,123.993729 
z"/>
<path fill="#FFAC5A" opacity="1.000000" stroke="none" 
	d="
M424.925049,311.668030 
	C424.663513,311.484131 424.339264,311.016113 423.992554,310.254028 
	C424.267487,310.434570 424.564911,310.909241 424.925049,311.668030 
z"/>
<path fill="#FC9943" opacity="1.000000" stroke="none" 
	d="
M90.728806,308.884216 
	C90.707596,309.106628 90.386513,309.240173 89.945107,309.165558 
	C90.026161,308.903381 90.227547,308.849365 90.728806,308.884216 
z"/>
<path fill="#FFE4C2" opacity="1.000000" stroke="none" 
	d="
M119.001236,403.001587 
	C118.908051,403.038879 118.813622,403.074524 118.858047,403.053833 
	C118.996902,402.997528 119.000000,403.000000 119.001236,403.001587 
z"/>
<path fill="#FFE4C2" opacity="1.000000" stroke="none" 
	d="
M154.001221,419.001648 
	C153.726288,419.117371 153.450119,419.231445 153.083481,419.177490 
	C152.993011,419.009430 153.002335,418.998260 153.253128,418.997498 
	C153.503922,418.996735 153.995636,418.996674 153.995636,418.996674 
	C153.995636,418.996674 154.000000,419.000000 154.001221,419.001648 
z"/>
<path fill="#F2D1A6" opacity="1.000000" stroke="none" 
	d="
M261.996582,332.906677 
	C264.306549,347.588806 269.987183,353.880524 284.139801,356.461060 
	C290.936127,357.700256 296.648010,354.546936 302.030182,350.610199 
	C303.752686,349.350342 306.314148,348.090179 308.199249,348.433990 
	C312.370483,349.194763 313.143555,354.057953 309.998962,357.499390 
	C297.366669,371.324249 271.582367,369.921875 259.467133,354.751160 
	C258.769989,353.878174 258.071777,353.006073 257.897797,352.788452 
	C252.118454,356.807983 246.948929,361.202484 241.093979,364.302338 
	C230.275711,370.030029 214.136749,367.184296 205.267929,358.776398 
	C202.727264,356.367767 200.316696,353.919708 203.225433,350.298584 
	C206.302216,346.468262 209.169968,348.240570 212.191437,350.638275 
	C221.904022,358.345734 232.905807,358.713257 242.444931,351.710754 
	C248.499756,347.266022 250.811157,340.775635 252.440796,333.250854 
	C255.937988,332.831390 258.967285,332.869049 261.996582,332.906677 
z"/>
<path fill="#636978" opacity="1.000000" stroke="none" 
	d="
M268.014954,289.964874 
	C273.774170,291.289429 279.800140,291.940735 285.231506,294.092712 
	C293.869629,297.515259 295.776154,303.515259 291.141968,311.675629 
	C285.248322,322.053864 276.443237,328.979492 264.132904,331.647888 
	C247.729614,323.741089 247.287033,307.295349 254.127731,297.563354 
	C257.640991,292.565125 262.872711,291.543457 268.014954,289.964874 
z"/>
<path fill="#575B67" opacity="1.000000" stroke="none" 
	d="
M267.640869,289.796814 
	C262.872711,291.543457 257.640991,292.565125 254.127731,297.563354 
	C247.287033,307.295349 247.729614,323.741089 263.749176,331.635712 
	C263.464355,332.151337 262.977478,332.406372 262.243591,332.784058 
	C258.967285,332.869049 255.937988,332.831390 252.456970,332.849426 
	C241.929932,330.707184 233.574036,325.646179 226.854294,317.839172 
	C215.993805,305.221436 218.656418,296.137451 234.695312,291.693085 
	C245.377686,288.733002 256.270538,288.124207 267.640869,289.796814 
z"/>
<path fill="#FFF1DD" opacity="1.000000" stroke="none" 
	d="
M341.930420,157.266235 
	C348.125824,146.575241 354.482727,136.196060 360.965881,125.509384 
	C362.800842,123.172371 364.404327,121.041283 366.241913,119.135948 
	C369.363953,115.898697 373.119781,114.533707 377.573212,116.029327 
	C382.188690,117.579361 384.968811,120.966911 384.967194,125.675774 
	C384.961273,142.950806 384.716431,160.228256 384.319885,177.499252 
	C384.186584,183.305847 383.332672,189.095901 382.822021,195.319504 
	C382.007843,195.389771 380.845978,195.271011 380.400543,194.643600 
	C369.932861,179.899551 356.559753,168.176651 341.930420,157.266235 
z"/>
<path fill="#FFF1DD" opacity="1.000000" stroke="none" 
	d="
M203.380859,224.369202 
	C192.758606,228.531937 183.179214,226.944092 174.676727,219.959290 
	C169.984695,216.104752 166.908157,211.073517 168.461075,204.667358 
	C170.052017,198.104355 175.091812,194.998108 181.254181,193.507736 
	C192.998215,190.667435 206.056320,197.303268 210.857056,208.685120 
	C211.991806,215.734833 209.377060,220.732269 203.380859,224.369202 
z"/>
<path fill="#FFF1DD" opacity="1.000000" stroke="none" 
	d="
M316.143250,226.012665 
	C309.254913,224.435486 304.234192,221.016891 303.135468,214.125351 
	C301.983246,206.898102 305.806519,201.697647 311.601257,197.883957 
	C319.600739,192.619278 328.149475,191.161362 337.178253,194.950699 
	C345.683289,198.520187 348.392883,207.359497 343.519592,215.158752 
	C338.345795,223.438904 326.681519,228.159698 316.143250,226.012665 
z"/>
<path fill="#393C41" opacity="1.000000" stroke="none" 
	d="
M324.016785,242.972778 
	C328.328033,243.387665 329.788116,245.850449 329.786438,249.483948 
	C329.785217,252.148010 330.432739,255.101013 329.490143,257.389343 
	C328.659485,259.405975 326.004730,261.948486 324.195068,261.917908 
	C322.458099,261.888519 319.815765,259.102417 319.285583,257.078613 
	C318.471283,253.970184 318.647217,250.371704 319.352020,247.191498 
	C319.714539,245.555649 322.129120,244.374557 324.016785,242.972778 
z"/>
<path fill="#393C40" opacity="1.000000" stroke="none" 
	d="
M192.992615,261.193420 
	C186.912338,263.066498 184.363815,261.227814 184.206009,255.256836 
	C184.158188,253.447296 184.227554,251.634872 184.191132,249.824799 
	C184.120193,246.297745 185.286560,243.492981 189.128143,243.055786 
	C192.749039,242.643723 194.517242,244.873947 195.088196,248.649872 
	C194.524475,252.985565 193.870514,256.950775 192.992615,261.193420 
z"/>
<path fill="#FFE3C1" opacity="1.000000" stroke="none" 
	d="
M151.725128,123.764954 
	C158.604614,134.775345 165.243546,145.556976 172.053345,156.650299 
	C167.591812,160.662338 162.567429,163.972076 158.409119,168.144882 
	C149.916931,176.666672 141.896225,185.657974 133.659927,194.435822 
	C133.129669,195.000931 132.416931,195.394821 131.455200,195.825531 
	C130.097214,178.579330 128.918930,161.382980 128.135498,144.168655 
	C127.873001,138.400574 128.637909,132.587570 128.895462,126.793419 
	C129.123138,121.671028 131.257812,117.844231 136.269531,116.083908 
	C141.352722,114.298477 145.315216,116.286972 148.636627,120.076866 
	C149.620590,121.199608 150.537140,122.381439 151.725128,123.764954 
z"/>
<path fill="#FFE7D1" opacity="1.000000" stroke="none" 
	d="
M79.002495,330.998322 
	C79.300697,331.654327 79.596268,332.312012 79.891830,332.969696 
	C79.680145,333.038208 79.468460,333.106689 79.256775,333.175201 
	C79.171898,332.649963 79.087021,332.124756 78.998230,331.302795 
	C78.994324,331.006104 78.999855,331.000000 79.002495,330.998322 
z"/>
<path fill="#FFE7D1" opacity="1.000000" stroke="none" 
	d="
M153.910889,418.827332 
	C153.995636,418.996674 153.503922,418.996735 153.258240,418.993652 
	C153.283752,418.879730 153.554947,418.768860 153.910889,418.827332 
z"/>
<path fill="#FFE7D1" opacity="1.000000" stroke="none" 
	d="
M159.465698,420.446777 
	C159.524323,420.411469 159.407074,420.482086 159.465698,420.446777 
z"/>
</svg>