<svg version="1.1" id="Layer_1" xmlns="http://www.w3.org/2000/svg" xmlns:xlink="http://www.w3.org/1999/xlink" x="0px" y="0px"
	 width="100%" viewBox="0 0 512 512" enable-background="new 0 0 512 512" xml:space="preserve">
<path fill="#FFFFFF" opacity="1.000000" stroke="none" 
	d="
M301.000000,513.000000 
	C200.691025,513.000000 100.882042,513.000000 1.036533,513.000000 
	C1.036533,342.399323 1.036533,171.798660 1.036533,1.098988 
	C171.558990,1.098988 342.118042,1.098988 512.838562,1.098988 
	C512.838562,171.666550 512.838562,342.333252 512.838562,513.000000 
	C442.465302,513.000000 371.982635,513.000000 301.000000,513.000000 
M7.971673,253.502472 
	C8.309082,261.961090 8.693413,270.418121 8.974494,278.878601 
	C9.635420,298.772247 14.099869,317.982727 20.518229,336.640778 
	C34.087688,376.086914 55.727379,410.414581 86.367912,439.075256 
	C105.736633,457.192474 127.224426,471.943115 151.204651,483.062531 
	C189.834045,500.974640 230.248550,509.229431 272.996216,506.193756 
	C293.480499,504.739075 313.450317,501.323364 332.925079,495.087738 
	C376.321503,481.192688 413.118378,457.133026 443.515900,423.113464 
	C461.180695,403.343842 475.208496,381.380554 485.964233,357.191223 
	C498.869202,328.168182 505.831573,297.698761 506.706879,266.111877 
	C507.164185,249.608398 506.029327,232.863907 503.612152,216.524353 
	C500.079407,192.644135 492.660217,169.679260 481.917938,147.951492 
	C468.243073,120.292084 450.136993,95.968582 427.543152,74.831520 
	C411.275726,59.612919 393.420898,46.807827 373.795837,36.457584 
	C345.016388,21.279316 314.460999,11.885034 281.974396,8.916790 
	C261.043030,7.004333 240.074631,7.063255 219.380188,10.296309 
	C191.872818,14.593733 165.633469,23.224577 140.944061,36.441269 
	C114.149567,50.784863 90.643150,69.082039 70.476486,91.876930 
	C53.825550,110.697914 40.206860,131.370743 29.899530,154.241119 
	C15.822824,185.475174 7.992714,218.123322 7.971673,253.502472 
z"/>
<path fill="#CEDCE6" opacity="1.000000" stroke="none" 
	d="
M7.973038,253.003342 
	C7.992714,218.123322 15.822824,185.475174 29.899530,154.241119 
	C40.206860,131.370743 53.825550,110.697914 70.476486,91.876930 
	C90.643150,69.082039 114.149567,50.784863 140.944061,36.441269 
	C165.633469,23.224577 191.872818,14.593733 219.380188,10.296309 
	C240.074631,7.063255 261.043030,7.004333 281.974396,8.916790 
	C314.460999,11.885034 345.016388,21.279316 373.795837,36.457584 
	C393.420898,46.807827 411.275726,59.612919 427.543152,74.831520 
	C450.136993,95.968582 468.243073,120.292084 481.917938,147.951492 
	C492.660217,169.679260 500.079407,192.644135 503.612152,216.524353 
	C506.029327,232.863907 507.164185,249.608398 506.706879,266.111877 
	C505.831573,297.698761 498.869202,328.168182 485.964233,357.191223 
	C475.208496,381.380554 461.180695,403.343842 443.515900,423.113464 
	C413.118378,457.133026 376.321503,481.192688 332.925079,495.087738 
	C313.450317,501.323364 293.480499,504.739075 272.996216,506.193756 
	C230.248550,509.229431 189.834045,500.974640 151.204651,483.062531 
	C127.224426,471.943115 105.736633,457.192474 86.367912,439.075256 
	C55.727379,410.414581 34.087688,376.086914 20.518229,336.640778 
	C14.099869,317.982727 9.635420,298.772247 8.974494,278.878601 
	C8.693413,270.418121 8.309082,261.961090 7.973038,253.003342 
M97.393936,162.618179 
	C97.277840,173.018311 97.141418,183.418320 97.090179,193.818771 
	C97.086662,194.531799 97.720459,195.247971 98.116959,196.834991 
	C99.209641,203.934082 100.302315,211.033188 101.137657,218.793884 
	C98.671120,222.934967 96.068420,227.001678 93.760063,231.229141 
	C78.292870,259.555115 70.866882,289.238922 79.213951,321.375519 
	C82.054504,332.311798 85.737320,342.968506 93.068138,352.671417 
	C96.809776,357.697754 100.163582,363.077606 104.364006,367.685760 
	C118.322876,382.999481 135.426682,393.266418 155.479080,398.724945 
	C172.703842,403.413727 189.900955,408.083191 208.727615,408.326508 
	C219.766342,409.208740 230.793991,410.595978 241.846741,410.838257 
	C254.118439,411.107208 266.413574,410.351257 278.697510,410.006134 
	C297.243683,409.485107 315.602600,407.484589 333.882599,404.145447 
	C355.588745,400.180511 376.617981,394.793640 394.612183,381.202545 
	C405.297485,373.131897 414.811493,363.983246 421.580475,351.511078 
	C438.698334,323.927612 442.288330,294.417358 433.541504,263.411560 
	C429.044342,247.470108 421.639130,232.741928 412.831665,217.990082 
	C413.863251,207.666321 414.894867,197.342575 416.303436,186.264130 
	C416.513855,185.466995 416.888092,184.674454 416.910675,183.872025 
	C417.446777,164.837631 415.737000,146.086594 409.535767,127.231819 
	C403.460449,110.298470 388.965057,100.593948 371.764404,103.393524 
	C359.582214,105.376297 347.477783,108.455582 335.715515,112.222244 
	C324.332794,115.867340 313.966095,121.938400 304.229156,130.091660 
	C298.010376,136.404541 291.791565,142.717422 284.697449,149.026276 
	C280.474030,149.008133 276.250641,148.990005 271.430634,148.382477 
	C264.658386,148.254318 257.885437,148.011215 251.114151,148.050095 
	C248.065033,148.067596 245.019135,148.647766 241.053314,148.973770 
	C236.854019,148.998154 232.654709,149.022522 228.153854,148.393967 
	C221.813553,142.239151 215.473267,136.084335 208.752853,129.371490 
	C192.575943,116.418350 174.056503,108.595413 153.768066,105.174210 
	C146.012466,103.866386 137.778015,102.651566 130.160706,103.875999 
	C116.772369,106.028099 108.372253,115.074112 104.007706,128.702057 
	C102.021553,139.472443 100.035400,150.242813 97.990044,161.509079 
	C97.990044,161.509079 97.956764,162.007828 97.393936,162.618179 
z"/>
<path fill="#FFF2E3" opacity="1.000000" stroke="none" 
	d="
M421.053558,351.893799 
	C414.811493,363.983246 405.297485,373.131897 394.612183,381.202545 
	C376.617981,394.793640 355.588745,400.180511 333.882599,404.145447 
	C315.602600,407.484589 297.243683,409.485107 278.697510,410.006134 
	C266.413574,410.351257 254.118439,411.107208 241.846741,410.838257 
	C230.793991,410.595978 219.766342,409.208740 208.299103,407.825928 
	C202.728195,403.189301 197.306122,399.352753 192.495697,394.861145 
	C178.005783,381.331543 164.347488,367.039154 154.029068,349.788452 
	C154.082520,349.621826 154.167236,349.282257 154.551300,349.248993 
	C168.785995,345.082703 181.692215,338.996033 192.700287,329.549713 
	C213.157883,311.994507 220.490677,283.998932 211.638077,257.286804 
	C204.457489,235.619919 202.719482,213.787811 208.255127,191.504181 
	C211.910263,176.790558 218.919342,163.648773 227.183746,150.774094 
	C227.772263,150.075226 228.113846,149.561066 228.455414,149.046906 
	C232.654709,149.022522 236.854019,148.998154 241.983948,148.982544 
	C252.618805,148.984833 262.322998,148.978348 272.027222,148.971878 
	C276.250641,148.990005 280.474030,149.008133 285.323364,149.235352 
	C286.224609,149.690872 286.499908,149.937332 286.848389,150.527466 
	C288.222626,152.995728 289.506012,155.131332 290.827454,157.243149 
	C302.747955,176.293793 309.211578,196.908203 309.038666,219.524551 
	C308.937134,232.804031 305.896912,245.455109 302.159119,258.100922 
	C294.020172,285.636810 299.526733,310.231537 321.283081,329.331573 
	C338.875031,344.775665 360.474335,352.560547 383.809875,353.752960 
	C396.160522,354.384064 408.634979,352.591949 421.053558,351.893799 
M281.773560,323.317200 
	C283.751221,319.569244 286.213043,315.986237 287.562622,312.024323 
	C288.773163,308.470673 287.142822,305.156830 283.093170,304.531891 
	C279.317719,303.949188 277.309937,306.291382 276.853699,310.024780 
	C276.339233,314.234772 273.956757,316.909332 269.687653,316.875916 
	C265.434326,316.842621 263.586914,314.072205 262.446869,309.994171 
	C261.833984,307.801758 259.312500,305.141846 257.177979,304.615326 
	C254.132675,303.864136 252.056137,306.407043 251.647263,309.661682 
	C251.096268,314.047638 248.867966,316.966278 244.289581,316.876282 
	C239.989105,316.791687 237.857864,313.946808 237.295700,309.791595 
	C236.793060,306.076233 234.655075,303.855957 230.858810,304.572510 
	C227.080566,305.285675 226.083298,308.233185 226.468262,311.824310 
	C227.828354,324.511566 241.897430,331.887085 253.096802,325.734344 
	C254.528549,324.947754 255.870941,323.998535 257.173004,323.176270 
	C266.499481,329.504395 272.609619,329.629364 281.773560,323.317200 
z"/>
<path fill="#FDBC73" opacity="1.000000" stroke="none" 
	d="
M421.317017,351.702454 
	C408.634979,352.591949 396.160522,354.384064 383.809875,353.752960 
	C360.474335,352.560547 338.875031,344.775665 321.283081,329.331573 
	C299.526733,310.231537 294.020172,285.636810 302.159119,258.100922 
	C305.896912,245.455109 308.937134,232.804031 309.038666,219.524551 
	C309.211578,196.908203 302.747955,176.293793 290.827454,157.243149 
	C289.506012,155.131332 288.222626,152.995728 287.321472,150.453644 
	C296.225159,151.220673 304.828461,151.936966 313.205933,153.716553 
	C322.262573,155.640396 331.108246,158.557312 340.259003,161.312805 
	C345.915100,164.035614 351.491821,166.229950 356.778015,168.982300 
	C379.599548,180.864624 398.126953,197.628418 412.697021,218.803345 
	C421.639130,232.741928 429.044342,247.470108 433.541504,263.411560 
	C442.288330,294.417358 438.698334,323.927612 421.317017,351.702454 
M401.741394,280.505890 
	C399.582428,279.823486 397.377258,278.444855 395.272797,278.584381 
	C387.865601,279.075470 380.379883,279.556732 373.148285,281.095673 
	C368.582397,282.067322 364.077057,284.437469 360.239594,287.160034 
	C358.740662,288.223480 358.152405,292.417480 359.019531,294.343811 
	C359.636017,295.713440 364.150787,296.941528 365.607422,296.058380 
	C375.185303,290.251282 385.526581,289.267365 396.319092,289.711731 
	C402.104370,289.949951 404.248291,286.580811 401.741394,280.505890 
M402.007294,317.423218 
	C392.919037,311.989838 382.930908,309.972992 372.510010,310.090424 
	C368.748871,310.132782 364.760284,310.534821 361.340118,311.919922 
	C359.534088,312.651337 357.281738,316.401550 357.816315,317.801605 
	C358.570618,319.777100 362.091003,322.426453 363.786713,322.031433 
	C374.721161,319.484344 384.801910,321.947113 394.954407,325.584961 
	C396.897614,326.281250 400.268311,325.884064 401.591461,324.580963 
	C402.834076,323.357239 402.238922,320.267395 402.007294,317.423218 
M332.853455,280.989960 
	C330.676605,279.907532 327.875092,277.442261 326.473297,278.075500 
	C324.503296,278.965393 322.806030,282.016998 322.374664,284.394897 
	C321.704590,288.088837 322.135376,291.995331 322.217316,295.809143 
	C322.295776,299.461823 324.011688,301.949188 327.873779,301.979828 
	C331.558411,302.009094 333.234192,299.508881 333.311462,296.147797 
	C333.421692,291.352570 333.190338,286.549469 332.853455,280.989960 
z"/>
<path fill="#4D7288" opacity="1.000000" stroke="none" 
	d="
M154.167236,349.282257 
	C154.167236,349.282257 154.082520,349.621826 153.631927,349.814148 
	C150.274460,350.697144 147.376755,351.429443 144.459229,352.071655 
	C127.295937,355.849670 110.138199,354.874603 92.986191,351.967804 
	C85.737320,342.968506 82.054504,332.311798 79.213951,321.375519 
	C70.866882,289.238922 78.292870,259.555115 93.760063,231.229141 
	C96.068420,227.001678 98.671120,222.934967 101.515839,218.271790 
	C111.034264,205.009903 121.265800,193.306091 134.253967,184.184753 
	C134.296417,185.992661 134.259552,187.632141 133.794434,189.139511 
	C128.006531,207.897552 124.660088,227.056519 125.080864,246.708786 
	C125.310486,257.433502 126.381966,268.140198 126.603729,278.898590 
	C123.143524,278.955780 120.151413,279.042664 117.163696,278.963623 
	C113.790329,278.874390 111.102402,279.624786 111.014732,283.663177 
	C110.927124,287.698853 113.074028,289.841309 117.049461,289.954071 
	C121.365517,290.076508 125.687233,289.999176 130.004303,290.418823 
	C131.670517,297.216095 133.338882,303.603485 134.614838,310.046143 
	C128.161301,311.772125 122.040405,313.260956 116.074417,315.221222 
	C114.213638,315.832672 112.101379,317.418549 111.343536,319.112732 
	C110.703209,320.544250 111.236115,323.643585 112.361946,324.447754 
	C113.955620,325.586151 116.674232,325.870605 118.732803,325.506592 
	C125.865913,324.245178 132.921524,322.545502 140.008804,321.389923 
	C144.729736,330.938904 149.448486,340.110565 154.167236,349.282257 
z"/>
<path fill="#FEE1B7" opacity="1.000000" stroke="none" 
	d="
M93.027161,352.319611 
	C110.138199,354.874603 127.295937,355.849670 144.459229,352.071655 
	C147.376755,351.429443 150.274460,350.697144 153.578461,349.980774 
	C164.347488,367.039154 178.005783,381.331543 192.495697,394.861145 
	C197.306122,399.352753 202.728195,403.189301 207.912903,407.664062 
	C189.900955,408.083191 172.703842,403.413727 155.479080,398.724945 
	C135.426682,393.266418 118.322876,382.999481 104.364006,367.685760 
	C100.163582,363.077606 96.809776,357.697754 93.027161,352.319611 
z"/>
<path fill="#62829B" opacity="1.000000" stroke="none" 
	d="
M104.172882,127.929245 
	C108.372253,115.074112 116.772369,106.028099 130.160706,103.875999 
	C137.778015,102.651566 146.012466,103.866386 153.768066,105.174210 
	C174.056503,108.595413 192.575943,116.418350 208.507095,129.682037 
	C202.937698,130.998138 197.458786,131.506851 192.322510,133.111969 
	C181.382980,136.530579 170.621353,140.518478 159.524872,144.199707 
	C158.919678,144.011169 158.576416,143.895981 158.031677,143.508163 
	C150.026657,136.775696 141.277542,131.779358 131.344254,130.073273 
	C122.427422,128.541794 113.240601,128.582245 104.172882,127.929245 
z"/>
<path fill="#FDBD74" opacity="1.000000" stroke="none" 
	d="
M304.865417,129.896423 
	C313.966095,121.938400 324.332794,115.867340 335.715515,112.222244 
	C347.477783,108.455582 359.582214,105.376297 371.764404,103.393524 
	C388.965057,100.593948 403.460449,110.298470 409.190857,127.602600 
	C401.433380,128.316895 393.930542,128.054703 386.628876,129.142517 
	C374.981934,130.877701 364.584137,135.808548 355.579285,143.953064 
	C354.919220,144.015900 354.542297,144.054703 353.918762,143.815186 
	C352.459259,143.027206 351.258301,142.486938 350.031830,142.012558 
	C335.410522,136.357254 320.470276,131.886978 304.865417,129.896423 
z"/>
<path fill="#FB8B9B" opacity="1.000000" stroke="none" 
	d="
M158.233170,143.780777 
	C158.576416,143.895981 158.919678,144.011169 159.710052,144.471100 
	C164.547058,150.200531 168.936935,155.585236 173.149384,161.295975 
	C171.947403,162.135040 170.893311,162.596893 169.902817,163.168884 
	C157.921646,170.088150 145.949860,177.023666 133.975632,183.954941 
	C121.265800,193.306091 111.034264,205.009903 101.644501,217.940979 
	C100.302315,211.033188 99.209641,203.934082 98.098000,195.957901 
	C98.072411,192.437164 98.065773,189.793503 98.268509,187.009399 
	C98.659225,186.590714 98.840561,186.312485 99.315269,185.877380 
	C111.045738,173.847687 123.376480,163.058380 137.757416,154.845703 
	C144.492462,150.999451 151.402466,147.459549 158.233170,143.780777 
z"/>
<path fill="#FD8C9B" opacity="1.000000" stroke="none" 
	d="
M354.165405,144.093506 
	C354.542297,144.054703 354.919220,144.015900 355.807312,144.234497 
	C364.785767,149.057755 373.907318,152.737305 381.569366,158.393860 
	C393.541077,167.232010 404.524384,177.409042 415.926453,187.018829 
	C414.894867,197.342575 413.863251,207.666321 412.764343,218.396713 
	C398.126953,197.628418 379.599548,180.864624 356.778015,168.982300 
	C351.491821,166.229950 345.915100,164.035614 340.397430,161.006577 
	C344.937012,154.983597 349.551208,149.538544 354.165405,144.093506 
z"/>
<path fill="#FCB2BD" opacity="1.000000" stroke="none" 
	d="
M416.114929,186.641479 
	C404.524384,177.409042 393.541077,167.232010 381.569366,158.393860 
	C373.907318,152.737305 364.785767,149.057755 356.090485,144.210480 
	C364.584137,135.808548 374.981934,130.877701 386.628876,129.142517 
	C393.930542,128.054703 401.433380,128.316895 409.284607,127.932228 
	C415.737000,146.086594 417.446777,164.837631 416.910675,183.872025 
	C416.888092,184.674454 416.513855,185.466995 416.114929,186.641479 
z"/>
<path fill="#FCB2BD" opacity="1.000000" stroke="none" 
	d="
M158.031677,143.508163 
	C151.402466,147.459549 144.492462,150.999451 137.757416,154.845703 
	C123.376480,163.058380 111.045738,173.847687 99.306793,185.405121 
	C99.003296,181.940323 99.114441,178.785858 98.973915,175.642624 
	C98.755730,170.762131 98.366173,165.889282 98.049255,161.013199 
	C100.035400,150.242813 102.021553,139.472443 104.090294,128.315643 
	C113.240601,128.582245 122.427422,128.541794 131.344254,130.073273 
	C141.277542,131.779358 150.026657,136.775696 158.031677,143.508163 
z"/>
<path fill="#4D7288" opacity="1.000000" stroke="none" 
	d="
M173.326813,160.969940 
	C168.936935,155.585236 164.547058,150.200531 159.972015,144.544449 
	C170.621353,140.518478 181.382980,136.530579 192.322510,133.111969 
	C197.458786,131.506851 202.937698,130.998138 208.697159,129.961029 
	C215.473267,136.084335 221.813553,142.239151 228.304626,148.720428 
	C228.113846,149.561066 227.772263,150.075226 226.816528,150.611511 
	C224.087845,150.438400 221.897980,149.790970 219.872177,150.128403 
	C212.256027,151.397049 204.637619,152.750168 197.125885,154.520630 
	C189.130341,156.405151 181.254761,158.798676 173.326813,160.969940 
z"/>
<path fill="#FDA741" opacity="1.000000" stroke="none" 
	d="
M353.918762,143.815186 
	C349.551208,149.538544 344.937012,154.983597 340.184387,160.734863 
	C331.108246,158.557312 322.262573,155.640396 313.205933,153.716553 
	C304.828461,151.936966 296.225159,151.220673 287.248260,150.109955 
	C286.499908,149.937332 286.224609,149.690872 285.761047,149.237366 
	C291.791565,142.717422 298.010376,136.404541 304.547302,129.994049 
	C320.470276,131.886978 335.410522,136.357254 350.031830,142.012558 
	C351.258301,142.486938 352.459259,143.027206 353.918762,143.815186 
z"/>
<path fill="#D3B4BD" opacity="1.000000" stroke="none" 
	d="
M98.059135,187.149857 
	C98.065773,189.793503 98.072411,192.437164 98.068451,195.521744 
	C97.720459,195.247971 97.086662,194.531799 97.090179,193.818771 
	C97.141418,183.418320 97.277840,173.018311 97.687149,162.780579 
	C98.006630,171.011932 98.032883,179.080887 98.059135,187.149857 
z"/>
<path fill="#FCFDFC" opacity="1.000000" stroke="none" 
	d="
M271.728943,148.677185 
	C262.322998,148.978348 252.618805,148.984833 242.443192,148.981964 
	C245.019135,148.647766 248.065033,148.067596 251.114151,148.050095 
	C257.885437,148.011215 264.658386,148.254318 271.728943,148.677185 
z"/>
<path fill="#FFC1CD" opacity="1.000000" stroke="none" 
	d="
M98.268509,187.009399 
	C98.032883,179.080887 98.006630,171.011932 97.968567,162.475403 
	C97.956764,162.007828 97.990044,161.509079 98.019653,161.261139 
	C98.366173,165.889282 98.755730,170.762131 98.973915,175.642624 
	C99.114441,178.785858 99.003296,181.940323 99.013412,185.562012 
	C98.840561,186.312485 98.659225,186.590714 98.268509,187.009399 
z"/>
<path fill="#60819A" opacity="1.000000" stroke="none" 
	d="
M173.149384,161.295975 
	C181.254761,158.798676 189.130341,156.405151 197.125885,154.520630 
	C204.637619,152.750168 212.256027,151.397049 219.872177,150.128403 
	C221.897980,149.790970 224.087845,150.438400 226.569611,150.796234 
	C218.919342,163.648773 211.910263,176.790558 208.255127,191.504181 
	C202.719482,213.787811 204.457489,235.619919 211.638077,257.286804 
	C220.490677,283.998932 213.157883,311.994507 192.700287,329.549713 
	C181.692215,338.996033 168.785995,345.082703 154.551300,349.248993 
	C149.448486,340.110565 144.729736,330.938904 140.450531,321.379089 
	C143.184509,321.248871 145.492447,321.421844 147.770294,321.783997 
	C151.449753,322.369019 155.279800,322.546173 156.279831,318.090729 
	C157.240891,313.808960 154.018845,311.637207 150.338867,311.113220 
	C145.277679,310.392578 140.122284,310.333435 135.007248,309.990875 
	C133.338882,303.603485 131.670517,297.216095 130.412994,290.416748 
	C136.558975,292.011444 142.242584,294.191345 148.060165,295.920563 
	C149.835007,296.448120 152.415115,296.371246 153.823547,295.403137 
	C155.095474,294.528870 156.278381,291.575226 155.712631,290.397247 
	C154.649353,288.183289 152.578629,286.123016 150.428787,284.821442 
	C143.298523,280.504700 135.290253,279.166656 127.073776,278.855042 
	C126.381966,268.140198 125.310486,257.433502 125.080864,246.708786 
	C124.660088,227.056519 128.006531,207.897552 133.794434,189.139511 
	C134.259552,187.632141 134.296417,185.992661 134.253967,184.184753 
	C145.949860,177.023666 157.921646,170.088150 169.902817,163.168884 
	C170.893311,162.596893 171.947403,162.135040 173.149384,161.295975 
M191.853531,282.270355 
	C190.503616,278.862183 188.026581,277.244080 184.417130,278.117065 
	C180.815125,278.988281 180.903717,281.996002 180.945648,284.904175 
	C180.995880,288.387878 181.129837,291.883545 180.913300,295.354462 
	C180.660370,299.408630 182.198074,301.915924 186.363480,301.938507 
	C190.388550,301.960327 191.698334,298.947601 191.887909,295.579803 
	C192.120651,291.444946 191.940308,287.286835 191.853531,282.270355 
z"/>
<path fill="#485965" opacity="1.000000" stroke="none" 
	d="
M281.502930,323.557434 
	C272.609619,329.629364 266.499481,329.504395 257.173004,323.176270 
	C255.870941,323.998535 254.528549,324.947754 253.096802,325.734344 
	C241.897430,331.887085 227.828354,324.511566 226.468262,311.824310 
	C226.083298,308.233185 227.080566,305.285675 230.858810,304.572510 
	C234.655075,303.855957 236.793060,306.076233 237.295700,309.791595 
	C237.857864,313.946808 239.989105,316.791687 244.289581,316.876282 
	C248.867966,316.966278 251.096268,314.047638 251.647263,309.661682 
	C252.056137,306.407043 254.132675,303.864136 257.177979,304.615326 
	C259.312500,305.141846 261.833984,307.801758 262.446869,309.994171 
	C263.586914,314.072205 265.434326,316.842621 269.687653,316.875916 
	C273.956757,316.909332 276.339233,314.234772 276.853699,310.024780 
	C277.309937,306.291382 279.317719,303.949188 283.093170,304.531891 
	C287.142822,305.156830 288.773163,308.470673 287.562622,312.024323 
	C286.213043,315.986237 283.751221,319.569244 281.502930,323.557434 
z"/>
<path fill="#475863" opacity="1.000000" stroke="none" 
	d="
M401.972382,280.789795 
	C404.248291,286.580811 402.104370,289.949951 396.319092,289.711731 
	C385.526581,289.267365 375.185303,290.251282 365.607422,296.058380 
	C364.150787,296.941528 359.636017,295.713440 359.019531,294.343811 
	C358.152405,292.417480 358.740662,288.223480 360.239594,287.160034 
	C364.077057,284.437469 368.582397,282.067322 373.148285,281.095673 
	C380.379883,279.556732 387.865601,279.075470 395.272797,278.584381 
	C397.377258,278.444855 399.582428,279.823486 401.972382,280.789795 
z"/>
<path fill="#475863" opacity="1.000000" stroke="none" 
	d="
M402.229858,317.710938 
	C402.238922,320.267395 402.834076,323.357239 401.591461,324.580963 
	C400.268311,325.884064 396.897614,326.281250 394.954407,325.584961 
	C384.801910,321.947113 374.721161,319.484344 363.786713,322.031433 
	C362.091003,322.426453 358.570618,319.777100 357.816315,317.801605 
	C357.281738,316.401550 359.534088,312.651337 361.340118,311.919922 
	C364.760284,310.534821 368.748871,310.132782 372.510010,310.090424 
	C382.930908,309.972992 392.919037,311.989838 402.229858,317.710938 
z"/>
<path fill="#495963" opacity="1.000000" stroke="none" 
	d="
M332.979187,281.369873 
	C333.190338,286.549469 333.421692,291.352570 333.311462,296.147797 
	C333.234192,299.508881 331.558411,302.009094 327.873779,301.979828 
	C324.011688,301.949188 322.295776,299.461823 322.217316,295.809143 
	C322.135376,291.995331 321.704590,288.088837 322.374664,284.394897 
	C322.806030,282.016998 324.503296,278.965393 326.473297,278.075500 
	C327.875092,277.442261 330.676605,279.907532 332.979187,281.369873 
z"/>
<path fill="#455864" opacity="1.000000" stroke="none" 
	d="
M126.603729,278.898590 
	C135.290253,279.166656 143.298523,280.504700 150.428787,284.821442 
	C152.578629,286.123016 154.649353,288.183289 155.712631,290.397247 
	C156.278381,291.575226 155.095474,294.528870 153.823547,295.403137 
	C152.415115,296.371246 149.835007,296.448120 148.060165,295.920563 
	C142.242584,294.191345 136.558975,292.011444 130.415176,290.006866 
	C125.687233,289.999176 121.365517,290.076508 117.049461,289.954071 
	C113.074028,289.841309 110.927124,287.698853 111.014732,283.663177 
	C111.102402,279.624786 113.790329,278.874390 117.163696,278.963623 
	C120.151413,279.042664 123.143524,278.955780 126.603729,278.898590 
z"/>
<path fill="#455764" opacity="1.000000" stroke="none" 
	d="
M134.614838,310.046143 
	C140.122284,310.333435 145.277679,310.392578 150.338867,311.113220 
	C154.018845,311.637207 157.240891,313.808960 156.279831,318.090729 
	C155.279800,322.546173 151.449753,322.369019 147.770294,321.783997 
	C145.492447,321.421844 143.184509,321.248871 140.448349,321.001831 
	C132.921524,322.545502 125.865913,324.245178 118.732803,325.506592 
	C116.674232,325.870605 113.955620,325.586151 112.361946,324.447754 
	C111.236115,323.643585 110.703209,320.544250 111.343536,319.112732 
	C112.101379,317.418549 114.213638,315.832672 116.074417,315.221222 
	C122.040405,313.260956 128.161301,311.772125 134.614838,310.046143 
z"/>
<path fill="#465864" opacity="1.000000" stroke="none" 
	d="
M191.896027,282.704590 
	C191.940308,287.286835 192.120651,291.444946 191.887909,295.579803 
	C191.698334,298.947601 190.388550,301.960327 186.363480,301.938507 
	C182.198074,301.915924 180.660370,299.408630 180.913300,295.354462 
	C181.129837,291.883545 180.995880,288.387878 180.945648,284.904175 
	C180.903717,281.996002 180.815125,278.988281 184.417130,278.117065 
	C188.026581,277.244080 190.503616,278.862183 191.896027,282.704590 
z"/>
</svg>