<svg version="1.1" id="Layer_1" xmlns="http://www.w3.org/2000/svg" xmlns:xlink="http://www.w3.org/1999/xlink" x="0px" y="0px"
	 width="100%" viewBox="0 0 512 512" enable-background="new 0 0 512 512" xml:space="preserve">
<path fill="#FFFFFF" opacity="1.000000" stroke="none" 
	d="
M1.000000,203.000000 
	C1.000000,135.333328 1.000000,68.166664 1.000000,1.000000 
	C171.666672,1.000000 342.333344,1.000000 513.000000,1.000000 
	C513.000000,171.666672 513.000000,342.333344 513.000000,513.000000 
	C342.333344,513.000000 171.666672,513.000000 1.000000,513.000000 
	C1.000000,409.833344 1.000000,306.666656 1.000000,203.000000 
M389.291290,45.152744 
	C369.508575,33.389187 348.750549,23.816494 326.622009,17.347769 
	C305.872803,11.282248 284.615234,8.272200 263.085968,7.015459 
	C247.584564,6.110586 232.349243,8.692051 217.130432,11.003531 
	C194.031113,14.511933 171.939041,21.380524 150.862045,31.541805 
	C133.282471,40.016972 117.087418,50.509193 101.602158,62.434521 
	C83.506454,76.370178 68.193909,92.765640 55.012249,111.183372 
	C40.150955,131.947937 28.514494,154.374176 20.391232,178.753250 
	C13.473750,199.513580 9.101638,220.658249 8.160630,242.386826 
	C7.371586,260.606476 8.028201,278.834015 10.843103,296.991699 
	C14.352666,319.630249 21.100027,341.237244 30.583185,361.927521 
	C45.678997,394.863464 67.440620,422.835327 94.896538,446.546326 
	C111.990578,461.308777 130.789703,473.234314 151.040985,482.999725 
	C180.380356,497.147522 211.577789,504.447571 243.872665,506.858154 
	C263.788300,508.344666 283.694763,506.386353 303.281403,502.653107 
	C330.186890,497.524902 355.642883,488.267792 379.621613,474.796814 
	C410.504730,457.447052 436.375153,434.464783 457.703400,406.380249 
	C473.700073,385.316193 485.776672,361.968658 494.017365,336.886475 
	C503.416687,308.277924 508.915466,278.904388 506.956177,248.573212 
	C506.285126,238.184875 505.624146,227.730042 503.879181,217.489502 
	C498.968781,188.671814 489.974762,161.208557 475.385132,135.688599 
	C466.295471,119.789108 456.122711,104.682068 443.669983,91.244080 
	C427.583405,73.884697 410.001343,58.219120 389.291290,45.152744 
z"/>
<path fill="#FFEBEF" opacity="1.000000" stroke="none" 
	d="
M389.600861,45.345337 
	C410.001343,58.219120 427.583405,73.884697 443.669983,91.244080 
	C456.122711,104.682068 466.295471,119.789108 475.385132,135.688599 
	C489.974762,161.208557 498.968781,188.671814 503.879181,217.489502 
	C505.624146,227.730042 506.285126,238.184875 506.956177,248.573212 
	C508.915466,278.904388 503.416687,308.277924 494.017365,336.886475 
	C485.776672,361.968658 473.700073,385.316193 457.703400,406.380249 
	C436.375153,434.464783 410.504730,457.447052 379.621613,474.796814 
	C355.642883,488.267792 330.186890,497.524902 303.281403,502.653107 
	C283.694763,506.386353 263.788300,508.344666 243.872665,506.858154 
	C211.577789,504.447571 180.380356,497.147522 151.040985,482.999725 
	C130.789703,473.234314 111.990578,461.308777 94.896538,446.546326 
	C67.440620,422.835327 45.678997,394.863464 30.583185,361.927521 
	C21.100027,341.237244 14.352666,319.630249 10.843103,296.991699 
	C8.028201,278.834015 7.371586,260.606476 8.160630,242.386826 
	C9.101638,220.658249 13.473750,199.513580 20.391232,178.753250 
	C28.514494,154.374176 40.150955,131.947937 55.012249,111.183372 
	C68.193909,92.765640 83.506454,76.370178 101.602158,62.434521 
	C117.087418,50.509193 133.282471,40.016972 150.862045,31.541805 
	C171.939041,21.380524 194.031113,14.511933 217.130432,11.003531 
	C232.349243,8.692051 247.584564,6.110586 263.085968,7.015459 
	C284.615234,8.272200 305.872803,11.282248 326.622009,17.347769 
	C348.750549,23.816494 369.508575,33.389187 389.600861,45.345337 
M299.018616,119.802002 
	C296.554169,124.186127 293.739075,128.413467 291.694611,132.985397 
	C286.678131,144.203583 281.013184,155.274582 277.448517,166.965652 
	C272.136902,184.386307 268.408264,202.289627 263.488342,220.569977 
	C259.664734,220.715149 255.840256,220.840317 252.017792,221.010834 
	C247.786072,221.199600 243.557236,221.481796 239.324036,221.564835 
	C238.880875,221.573532 238.416748,220.511826 237.966095,219.087585 
	C237.098938,213.292831 236.632797,207.402740 235.282623,201.722809 
	C232.310394,189.219177 229.446487,176.642929 225.510727,164.427429 
	C220.908142,150.142380 215.982559,135.857025 209.748245,122.234879 
	C204.709045,111.224121 198.434128,100.741768 189.354874,92.017838 
	C182.325607,85.263649 175.371475,79.006248 165.469940,77.835281 
	C160.169739,77.208466 154.434387,76.993752 149.356964,78.337303 
	C130.991669,83.196983 119.807465,95.974983 118.132683,115.434837 
	C117.065483,127.835091 118.038223,140.272141 121.695511,152.285904 
	C125.535530,164.899918 129.241608,177.583130 133.816116,189.936203 
	C137.503296,199.893097 141.966904,209.627151 146.875076,219.049057 
	C151.797745,228.498825 157.606445,237.496078 163.232101,246.564301 
	C164.661484,248.868378 164.186966,250.041183 162.638748,252.091721 
	C156.299484,260.487762 149.018875,268.522736 144.495117,277.858582 
	C137.557053,292.176910 132.437439,307.210754 133.760986,323.939697 
	C134.523941,333.583099 133.352341,343.354980 135.174622,353.074310 
	C137.518402,365.575073 142.178574,377.122314 149.014755,387.657074 
	C157.470200,400.687225 167.887619,411.798065 181.635925,419.757263 
	C194.620529,427.274353 208.139847,432.817413 223.538315,435.624420 
	C228.088364,435.747375 232.657089,435.663239 237.181458,436.071014 
	C239.895706,436.315674 242.546219,437.919525 245.215912,437.894745 
	C257.539093,437.780304 269.859985,437.338501 282.178497,436.920135 
	C283.460571,436.876587 284.721527,436.212341 285.992279,435.836060 
	C285.687103,435.267731 285.381897,434.699402 285.038635,434.060120 
	C290.070465,433.760864 295.105774,434.166229 299.741272,432.992584 
	C304.626282,431.755768 309.044220,428.787872 313.814392,426.963928 
	C333.208527,419.548340 348.736206,407.150787 360.221985,390.028168 
	C369.081818,376.820221 374.029053,362.123260 376.286774,346.169098 
	C378.207733,332.594513 378.488861,319.328064 375.808228,305.987366 
	C371.986420,286.967285 364.066620,269.909973 350.965942,255.411392 
	C347.575348,251.658936 344.312103,247.791382 341.509888,243.553406 
	C346.987427,235.005081 352.956177,226.725449 357.816620,217.839584 
	C363.737091,207.015732 369.204651,195.882919 373.973969,184.508835 
	C378.250946,174.308838 381.316040,163.600662 385.153015,152.535461 
	C385.811707,150.792709 386.336853,148.984421 387.153870,147.319366 
	C389.708405,142.113251 393.753876,137.198746 394.693573,131.736343 
	C396.390137,121.874466 394.347290,112.013191 390.178528,102.765396 
	C383.707550,88.410431 368.642456,85.107002 357.066223,77.400810 
	C354.481537,75.680206 350.277802,76.164955 346.806396,76.057571 
	C341.898346,75.905762 337.408875,76.711990 332.496155,78.600510 
	C318.548889,83.962021 308.497498,92.174393 304.426880,106.978874 
	C303.261536,111.217117 303.519897,116.245750 299.018616,119.802002 
z"/>
<path fill="#FFDEE4" opacity="1.000000" stroke="none" 
	d="
M340.990387,243.976685 
	C344.312103,247.791382 347.575348,251.658936 350.965942,255.411392 
	C364.066620,269.909973 371.986420,286.967285 375.808228,305.987366 
	C378.488861,319.328064 378.207733,332.594513 376.286774,346.169098 
	C374.029053,362.123260 369.081818,376.820221 360.221985,390.028168 
	C348.736206,407.150787 333.208527,419.548340 313.814392,426.963928 
	C309.044220,428.787872 304.626282,431.755768 299.741272,432.992584 
	C295.105774,434.166229 290.070465,433.760864 285.038635,434.060120 
	C285.381897,434.699402 285.687103,435.267731 285.992279,435.836060 
	C284.721527,436.212341 283.460571,436.876587 282.178497,436.920135 
	C269.859985,437.338501 257.539093,437.780304 245.215912,437.894745 
	C242.546219,437.919525 239.895706,436.315674 237.181458,436.071014 
	C232.657089,435.663239 228.088364,435.747375 223.580017,435.285583 
	C223.141876,433.211609 223.061874,431.214325 222.121964,429.780884 
	C209.056625,409.854828 199.488754,388.488800 195.245926,364.711487 
	C197.392960,363.898499 199.355164,363.502045 201.195755,362.790833 
	C213.801071,357.919983 218.055603,343.538116 209.536133,334.136292 
	C204.364746,328.429291 197.623459,325.927826 190.103348,325.575653 
	C190.362122,324.429749 190.460693,323.651398 190.985596,323.011963 
	C195.844025,324.739532 198.591553,323.065399 199.414261,318.603455 
	C200.069901,315.047577 201.648514,312.553101 205.449615,312.637451 
	C209.203751,312.720795 210.796021,315.181702 211.304306,318.794830 
	C211.784424,322.207703 214.016785,324.259277 217.561478,323.652649 
	C221.070404,323.052124 222.260620,320.439453 222.077744,317.006134 
	C221.529221,306.708710 210.638397,299.055176 200.621170,302.341156 
	C197.588287,303.336029 194.983444,305.635681 192.106842,306.868958 
	C192.507080,301.628418 192.683350,296.804016 193.509827,292.093658 
	C197.514328,269.270905 205.717499,248.004471 217.403595,228.008789 
	C219.627014,224.204361 222.194427,222.088669 226.738342,221.881836 
	C230.501236,221.710571 234.222580,220.626450 237.962341,219.946747 
	C238.416748,220.511826 238.880875,221.573532 239.324036,221.564835 
	C243.557236,221.481796 247.786072,221.199600 252.017792,221.010834 
	C255.840256,220.840317 259.664734,220.715149 264.203674,220.275085 
	C273.587097,220.633957 282.255188,221.287750 291.167358,222.228729 
	C300.280762,225.348099 309.150024,228.180298 318.241669,231.277634 
	C321.022308,232.723923 323.676422,233.736160 326.118835,235.121582 
	C331.136017,237.967514 336.039886,241.013214 340.990387,243.976685 
M316.458160,364.280365 
	C323.202332,366.123688 329.748871,364.995911 335.768768,361.994598 
	C350.178406,354.810455 351.002197,338.431641 337.347992,329.972961 
	C327.590546,323.928253 317.359253,324.602600 307.595276,330.030090 
	C297.414093,335.689484 294.783936,346.686890 302.148621,355.658203 
	C305.338257,359.543701 311.067505,361.344421 316.458160,364.280365 
M280.001709,340.519440 
	C281.739410,336.848114 283.923340,333.310608 285.076965,329.464111 
	C286.041016,326.249817 284.344788,323.453125 280.755554,322.841522 
	C277.178619,322.232086 274.956238,324.182159 274.469360,327.655548 
	C273.911438,331.635620 272.129883,334.387177 267.913147,334.380127 
	C263.669342,334.373016 262.352844,331.376923 261.212646,327.652802 
	C260.603729,325.663940 257.825684,323.073975 256.024261,323.072144 
	C254.231705,323.070312 251.452972,325.672546 250.853668,327.659790 
	C249.725174,331.401764 248.379608,334.373962 244.144531,334.375031 
	C239.941711,334.376068 238.162872,331.670502 237.612869,327.653534 
	C237.143448,324.225067 234.907333,322.223633 231.310654,322.843262 
	C227.724670,323.461029 226.607727,326.077087 226.818237,329.498047 
	C227.479446,340.243866 238.662445,347.964142 249.117203,344.680511 
	C251.590057,343.903839 253.825821,342.372406 256.183929,341.181427 
	C265.327667,346.985992 271.478485,346.945953 280.001709,340.519440 
M300.943207,317.583313 
	C301.719391,314.168427 304.070374,311.843994 307.283691,312.855530 
	C309.421173,313.528381 311.623810,316.184357 312.414520,318.437897 
	C313.634857,321.916016 315.237762,324.311432 319.014954,323.625641 
	C322.788605,322.940491 323.812805,319.999268 323.402191,316.407745 
	C322.445770,308.042236 315.182465,301.563873 306.706940,301.577423 
	C298.441071,301.590637 291.145996,307.903107 290.091339,315.931396 
	C289.607971,319.611084 290.304596,322.865570 294.436981,323.626984 
	C298.242065,324.328125 300.269104,322.009583 300.943207,317.583313 
z"/>
<path fill="#FFB4C3" opacity="1.000000" stroke="none" 
	d="
M195.004837,364.982422 
	C199.488754,388.488800 209.056625,409.854828 222.121964,429.780884 
	C223.061874,431.214325 223.141876,433.211609 223.299454,435.011658 
	C208.139847,432.817413 194.620529,427.274353 181.635925,419.757263 
	C167.887619,411.798065 157.470200,400.687225 149.014755,387.657074 
	C142.178574,377.122314 137.518402,365.575073 135.174622,353.074310 
	C133.352341,343.354980 134.523941,333.583099 133.760986,323.939697 
	C132.437439,307.210754 137.557053,292.176910 144.495117,277.858582 
	C149.018875,268.522736 156.299484,260.487762 162.638748,252.091721 
	C164.186966,250.041183 164.661484,248.868378 163.232101,246.564301 
	C157.606445,237.496078 151.797745,228.498825 146.875076,219.049057 
	C141.966904,209.627151 137.503296,199.893097 133.816116,189.936203 
	C129.241608,177.583130 125.535530,164.899918 121.695511,152.285904 
	C118.038223,140.272141 117.065483,127.835091 118.132683,115.434837 
	C119.807465,95.974983 130.991669,83.196983 149.356964,78.337303 
	C154.434387,76.993752 160.169739,77.208466 165.469940,77.835281 
	C175.371475,79.006248 182.325607,85.263649 189.354874,92.017838 
	C198.434128,100.741768 204.709045,111.224121 209.748245,122.234879 
	C215.982559,135.857025 220.908142,150.142380 225.510727,164.427429 
	C229.446487,176.642929 232.310394,189.219177 235.282623,201.722809 
	C236.632797,207.402740 237.098938,213.292831 237.964218,219.517166 
	C234.222580,220.626450 230.501236,221.710571 226.738342,221.881836 
	C222.194427,222.088669 219.627014,224.204361 217.403595,228.008789 
	C205.717499,248.004471 197.514328,269.270905 193.509827,292.093658 
	C192.683350,296.804016 192.507080,301.628418 192.030609,306.804657 
	C192.030060,307.209045 192.084671,307.021027 191.802582,307.201721 
	C191.368713,307.798431 191.216949,308.214417 191.074585,308.970490 
	C189.031815,313.758728 186.734070,318.197418 190.559250,322.873016 
	C190.460693,323.651398 190.362122,324.429749 189.674957,325.590973 
	C183.936661,327.519165 178.173996,328.071045 173.753693,330.798492 
	C161.148102,338.576477 162.284149,354.158813 175.262848,361.267090 
	C181.550003,364.710510 188.139267,365.269684 195.004837,364.982422 
M194.015045,149.520248 
	C189.039291,139.749893 184.313370,129.841492 179.013458,120.250267 
	C174.267807,111.662102 164.746902,108.533012 155.759720,111.921738 
	C147.273727,115.121475 143.025818,123.861755 144.541443,133.388657 
	C147.163528,149.870544 151.631546,165.793503 157.600677,181.350174 
	C164.367859,198.986755 172.746277,215.716187 184.404007,230.692444 
	C186.392609,233.247131 188.109299,234.131058 191.457596,232.449081 
	C196.180496,230.076569 201.271408,228.302307 206.370926,226.858200 
	C210.169006,225.782623 211.190857,223.820251 211.097382,220.067062 
	C210.487137,195.565582 203.286636,172.694748 194.015045,149.520248 
z"/>
<path fill="#FFDEE4" opacity="1.000000" stroke="none" 
	d="
M299.057434,119.080276 
	C303.519897,116.245750 303.261536,111.217117 304.426880,106.978874 
	C308.497498,92.174393 318.548889,83.962021 332.496155,78.600510 
	C337.408875,76.711990 341.898346,75.905762 346.806396,76.057571 
	C350.277802,76.164955 354.481537,75.680206 357.066223,77.400810 
	C368.642456,85.107002 383.707550,88.410431 390.178528,102.765396 
	C394.347290,112.013191 396.390137,121.874466 394.693573,131.736343 
	C393.753876,137.198746 389.708405,142.113251 387.153870,147.319366 
	C386.336853,148.984421 385.811707,150.792709 384.695496,152.833694 
	C372.222809,161.768097 360.207642,170.404282 347.750366,179.032303 
	C337.854187,180.865891 328.240204,181.518066 320.229431,175.375427 
	C315.152496,171.482422 311.390991,165.873856 307.021515,160.624207 
	C305.325317,147.524139 303.616577,134.838440 302.001923,122.140778 
	C301.759308,120.233131 302.474548,117.777481 299.057434,119.080276 
z"/>
<path fill="#FFB4C3" opacity="1.000000" stroke="none" 
	d="
M299.038025,119.441139 
	C302.474548,117.777481 301.759308,120.233131 302.001923,122.140778 
	C303.616577,134.838440 305.325317,147.524139 306.858551,160.943420 
	C305.942078,163.507538 305.129669,165.325974 304.405396,167.178833 
	C297.501862,184.838959 291.579712,202.742706 290.923248,221.941544 
	C282.255188,221.287750 273.587097,220.633957 264.462555,219.983887 
	C268.408264,202.289627 272.136902,184.386307 277.448517,166.965652 
	C281.013184,155.274582 286.678131,144.203583 291.694611,132.985397 
	C293.739075,128.413467 296.554169,124.186127 299.038025,119.441139 
z"/>
<path fill="#FFB4C3" opacity="1.000000" stroke="none" 
	d="
M348.192444,179.040466 
	C360.207642,170.404282 372.222809,161.768097 384.576874,153.124298 
	C381.316040,163.600662 378.250946,174.308838 373.973969,184.508835 
	C369.204651,195.882919 363.737091,207.015732 357.816620,217.839584 
	C352.956177,226.725449 346.987427,235.005081 341.250122,243.765045 
	C336.039886,241.013214 331.136017,237.967514 326.118835,235.121582 
	C323.676422,233.736160 321.022308,232.723923 318.389465,230.978958 
	C322.492676,224.841751 327.341492,219.642563 330.703339,213.614151 
	C336.988525,202.343582 342.411011,190.591949 348.192444,179.040466 
z"/>
<path fill="#FFF8E6" opacity="1.000000" stroke="none" 
	d="
M347.750366,179.032303 
	C342.411011,190.591949 336.988525,202.343582 330.703339,213.614151 
	C327.341492,219.642563 322.492676,224.841751 318.167114,230.713837 
	C309.150024,228.180298 300.280762,225.348099 291.167358,222.228729 
	C291.579712,202.742706 297.501862,184.838959 304.405396,167.178833 
	C305.129669,165.325974 305.942078,163.507538 306.876587,161.353912 
	C311.390991,165.873856 315.152496,171.482422 320.229431,175.375427 
	C328.240204,181.518066 337.854187,180.865891 347.750366,179.032303 
z"/>
<path fill="#FFFEFE" opacity="1.000000" stroke="none" 
	d="
M195.245926,364.711487 
	C188.139267,365.269684 181.550003,364.710510 175.262848,361.267090 
	C162.284149,354.158813 161.148102,338.576477 173.753693,330.798492 
	C178.173996,328.071045 183.936661,327.519165 189.514740,325.958496 
	C197.623459,325.927826 204.364746,328.429291 209.536133,334.136292 
	C218.055603,343.538116 213.801071,357.919983 201.195755,362.790833 
	C199.355164,363.502045 197.392960,363.898499 195.245926,364.711487 
z"/>
<path fill="#FFFFFF" opacity="1.000000" stroke="none" 
	d="
M316.050690,364.186249 
	C311.067505,361.344421 305.338257,359.543701 302.148621,355.658203 
	C294.783936,346.686890 297.414093,335.689484 307.595276,330.030090 
	C317.359253,324.602600 327.590546,323.928253 337.347992,329.972961 
	C351.002197,338.431641 350.178406,354.810455 335.768768,361.994598 
	C329.748871,364.995911 323.202332,366.123688 316.050690,364.186249 
z"/>
<path fill="#3D4658" opacity="1.000000" stroke="none" 
	d="
M279.736725,340.767029 
	C271.478485,346.945953 265.327667,346.985992 256.183929,341.181427 
	C253.825821,342.372406 251.590057,343.903839 249.117203,344.680511 
	C238.662445,347.964142 227.479446,340.243866 226.818237,329.498047 
	C226.607727,326.077087 227.724670,323.461029 231.310654,322.843262 
	C234.907333,322.223633 237.143448,324.225067 237.612869,327.653534 
	C238.162872,331.670502 239.941711,334.376068 244.144531,334.375031 
	C248.379608,334.373962 249.725174,331.401764 250.853668,327.659790 
	C251.452972,325.672546 254.231705,323.070312 256.024261,323.072144 
	C257.825684,323.073975 260.603729,325.663940 261.212646,327.652802 
	C262.352844,331.376923 263.669342,334.373016 267.913147,334.380127 
	C272.129883,334.387177 273.911438,331.635620 274.469360,327.655548 
	C274.956238,324.182159 277.178619,322.232086 280.755554,322.841522 
	C284.344788,323.453125 286.041016,326.249817 285.076965,329.464111 
	C283.923340,333.310608 281.739410,336.848114 279.736725,340.767029 
z"/>
<path fill="#3D4657" opacity="1.000000" stroke="none" 
	d="
M190.985596,323.011963 
	C186.734070,318.197418 189.031815,313.758728 191.414398,308.831787 
	C191.858093,307.909058 191.971375,307.465027 192.084656,307.021027 
	C192.084671,307.021027 192.030060,307.209045 192.106293,307.273376 
	C194.983444,305.635681 197.588287,303.336029 200.621170,302.341156 
	C210.638397,299.055176 221.529221,306.708710 222.077744,317.006134 
	C222.260620,320.439453 221.070404,323.052124 217.561478,323.652649 
	C214.016785,324.259277 211.784424,322.207703 211.304306,318.794830 
	C210.796021,315.181702 209.203751,312.720795 205.449615,312.637451 
	C201.648514,312.553101 200.069901,315.047577 199.414261,318.603455 
	C198.591553,323.065399 195.844025,324.739532 190.985596,323.011963 
z"/>
<path fill="#3D4658" opacity="1.000000" stroke="none" 
	d="
M300.911316,317.973877 
	C300.269104,322.009583 298.242065,324.328125 294.436981,323.626984 
	C290.304596,322.865570 289.607971,319.611084 290.091339,315.931396 
	C291.145996,307.903107 298.441071,301.590637 306.706940,301.577423 
	C315.182465,301.563873 322.445770,308.042236 323.402191,316.407745 
	C323.812805,319.999268 322.788605,322.940491 319.014954,323.625641 
	C315.237762,324.311432 313.634857,321.916016 312.414520,318.437897 
	C311.623810,316.184357 309.421173,313.528381 307.283691,312.855530 
	C304.070374,311.843994 301.719391,314.168427 300.911316,317.973877 
z"/>
<path fill="#FFF8E6" opacity="1.000000" stroke="none" 
	d="
M194.116135,149.889954 
	C203.286636,172.694748 210.487137,195.565582 211.097382,220.067062 
	C211.190857,223.820251 210.169006,225.782623 206.370926,226.858200 
	C201.271408,228.302307 196.180496,230.076569 191.457596,232.449081 
	C188.109299,234.131058 186.392609,233.247131 184.404007,230.692444 
	C172.746277,215.716187 164.367859,198.986755 157.600677,181.350174 
	C151.631546,165.793503 147.163528,149.870544 144.541443,133.388657 
	C143.025818,123.861755 147.273727,115.121475 155.759720,111.921738 
	C164.746902,108.533012 174.267807,111.662102 179.013458,120.250267 
	C184.313370,129.841492 189.039291,139.749893 194.116135,149.889954 
z"/>
<path fill="#FFDEE4" opacity="1.000000" stroke="none" 
	d="
M191.802567,307.201721 
	C191.971375,307.465027 191.858093,307.909058 191.404999,308.491760 
	C191.216949,308.214417 191.368713,307.798431 191.802567,307.201721 
z"/>
</svg>