<svg version="1.1" id="Layer_1" xmlns="http://www.w3.org/2000/svg" xmlns:xlink="http://www.w3.org/1999/xlink" x="0px" y="0px"
	 width="100%" viewBox="0 0 512 512" enable-background="new 0 0 512 512" xml:space="preserve">
<path fill="#FFFFFF" opacity="1.000000" stroke="none" 
	d="
M1.000000,206.000000 
	C1.000000,137.333328 1.000000,69.166664 1.000000,1.000000 
	C171.666672,1.000000 342.333344,1.000000 513.000000,1.000000 
	C513.000000,171.666672 513.000000,342.333344 513.000000,513.000000 
	C342.333344,513.000000 171.666672,513.000000 1.000000,513.000000 
	C1.000000,410.833344 1.000000,308.666656 1.000000,206.000000 
M486.812378,359.219604 
	C486.938019,358.736572 486.994385,358.221771 487.199310,357.775146 
	C499.014374,332.024170 505.893921,304.862030 507.694977,276.744873 
	C508.986359,256.583893 508.589417,236.290497 505.153870,216.136169 
	C499.933136,185.509293 489.465729,156.893753 473.717590,130.226776 
	C458.550751,104.544136 439.234070,82.435608 416.123108,63.456322 
	C392.704498,44.224453 366.597198,29.843914 338.059906,20.394676 
	C309.335236,10.883381 279.667267,5.587437 249.152924,8.055252 
	C235.978561,9.120716 222.675964,9.909072 209.745743,12.432712 
	C174.922134,19.229368 142.961288,33.248199 114.003929,53.727951 
	C92.189507,69.155952 73.221550,87.762398 57.516144,109.348892 
	C28.066090,149.826904 12.254610,195.397522 9.080573,245.281235 
	C7.843207,264.727905 9.704765,284.115753 13.324400,303.202087 
	C18.299780,329.437286 27.303228,354.286407 40.260254,377.768188 
	C59.395859,412.447266 85.338226,440.799225 117.835274,463.251129 
	C139.890015,478.488586 163.889694,489.605225 189.641830,497.081177 
	C209.628311,502.883331 230.000381,506.247131 250.749924,506.916809 
	C276.772369,507.756592 302.286896,504.382721 327.374451,497.162598 
	C363.766418,486.689087 396.189545,469.009308 424.401123,443.925720 
	C450.928894,420.339203 471.766785,392.324402 486.812378,359.219604 
z"/>
<path fill="#FFF5D1" opacity="1.000000" stroke="none" 
	d="
M486.658508,359.565643 
	C471.766785,392.324402 450.928894,420.339203 424.401123,443.925720 
	C396.189545,469.009308 363.766418,486.689087 327.374451,497.162598 
	C302.286896,504.382721 276.772369,507.756592 250.749924,506.916809 
	C230.000381,506.247131 209.628311,502.883331 189.641830,497.081177 
	C163.889694,489.605225 139.890015,478.488586 117.835274,463.251129 
	C85.338226,440.799225 59.395859,412.447266 40.260254,377.768188 
	C27.303228,354.286407 18.299780,329.437286 13.324400,303.202087 
	C9.704765,284.115753 7.843207,264.727905 9.080573,245.281235 
	C12.254610,195.397522 28.066090,149.826904 57.516144,109.348892 
	C73.221550,87.762398 92.189507,69.155952 114.003929,53.727951 
	C142.961288,33.248199 174.922134,19.229368 209.745743,12.432712 
	C222.675964,9.909072 235.978561,9.120716 249.152924,8.055252 
	C279.667267,5.587437 309.335236,10.883381 338.059906,20.394676 
	C366.597198,29.843914 392.704498,44.224453 416.123108,63.456322 
	C439.234070,82.435608 458.550751,104.544136 473.717590,130.226776 
	C489.465729,156.893753 499.933136,185.509293 505.153870,216.136169 
	C508.589417,236.290497 508.986359,256.583893 507.694977,276.744873 
	C505.893921,304.862030 499.014374,332.024170 487.199310,357.775146 
	C486.994385,358.221771 486.938019,358.736572 486.658508,359.565643 
M288.000000,435.000000 
	C288.000000,435.000000 288.000488,435.002075 288.775604,435.005615 
	C290.187683,434.673920 291.599731,434.342194 293.002258,434.001312 
	C293.002258,434.001312 293.020020,434.015076 293.866760,434.013367 
	C295.180908,433.866089 296.524323,433.846252 297.804871,433.552460 
	C318.346893,428.839600 337.038879,420.225159 353.530029,407.005127 
	C369.764862,393.990601 382.755371,378.244659 390.349854,358.875549 
	C395.829041,344.901367 399.740692,330.275787 403.680328,315.758575 
	C404.776367,311.719757 404.361481,306.758789 403.098694,302.700378 
	C400.596802,294.659576 393.199249,292.131592 382.743500,293.954102 
	C384.779541,282.763428 387.805847,271.641937 388.593811,260.364075 
	C389.519470,247.115616 387.145966,233.882706 382.371948,221.400986 
	C377.843567,209.561523 372.012146,198.392487 360.869293,190.250412 
	C360.744720,189.123367 360.426819,187.979218 360.524719,186.871841 
	C361.882446,171.518463 359.227753,156.682526 354.868713,141.315567 
	C347.736755,121.324646 335.926819,104.686935 318.265442,92.826431 
	C293.479767,76.181580 265.776123,73.088409 237.020874,77.664253 
	C221.801544,80.086105 207.699158,86.046562 195.321411,95.443008 
	C178.534439,108.186676 167.057602,124.668091 161.102631,145.804993 
	C159.625198,156.000305 157.998337,166.177185 156.735748,176.399033 
	C156.138687,181.232758 156.238968,186.152618 155.394791,191.272385 
	C153.490555,192.869003 151.352951,194.257858 149.718155,196.094315 
	C133.193207,214.657852 128.010208,237.266891 128.527725,261.119751 
	C128.771378,272.350647 132.427567,283.507507 133.753555,294.540222 
	C125.189430,289.730652 112.956833,296.355011 113.064453,306.004059 
	C113.205566,318.655609 115.829590,330.877716 119.764565,342.926605 
	C127.656479,367.091644 140.616730,387.773682 159.932785,404.478149 
	C183.239212,424.633453 210.771088,435.013336 240.900848,437.638489 
	C256.114380,438.964020 271.645660,436.642426 287.466064,435.772034 
	C287.733307,435.576599 287.911896,435.319519 288.000000,435.000000 
z"/>
<path fill="#FFE380" opacity="1.000000" stroke="none" 
	d="
M161.298233,145.025681 
	C167.057602,124.668091 178.534439,108.186676 195.321411,95.443008 
	C207.699158,86.046562 221.801544,80.086105 237.020874,77.664253 
	C265.776123,73.088409 293.479767,76.181580 318.265442,92.826431 
	C335.926819,104.686935 347.736755,121.324646 354.521179,141.745468 
	C353.979675,142.865448 353.646667,143.548767 353.612762,144.246613 
	C353.156097,153.649063 353.950317,163.302277 352.077332,172.408508 
	C347.417206,195.065598 335.486328,213.836807 318.266113,229.252792 
	C312.847748,234.103424 305.297211,234.189621 300.474731,228.760468 
	C298.241699,226.246536 297.212708,222.663086 295.630066,219.549133 
	C271.085266,243.197662 246.145050,243.298218 220.942459,219.172684 
	C220.550217,220.509094 220.197189,221.401077 220.030838,222.326630 
	C218.335571,231.758057 206.855255,236.246964 199.588074,229.939346 
	C185.676605,217.864792 175.385941,203.174423 168.792953,185.878296 
	C164.157410,173.717346 162.390701,161.206757 162.915848,148.268509 
	C162.958771,147.211197 161.864243,146.107712 161.298233,145.025681 
M266.708466,189.931686 
	C268.947205,188.527359 271.461426,187.421799 273.371307,185.660797 
	C278.415833,181.009583 281.613129,175.023636 279.718353,168.280640 
	C278.115417,162.576141 271.922089,162.291931 266.962433,161.078262 
	C266.332367,160.924088 265.636780,161.037506 264.165955,160.896454 
	C256.406769,159.254227 248.803635,160.385345 241.812469,163.606979 
	C239.373520,164.730881 236.491959,168.666962 236.676529,171.101639 
	C237.912888,187.410629 254.411942,195.455658 266.708466,189.931686 
M214.178391,151.879730 
	C214.230148,154.197998 213.553635,156.907410 214.531570,158.728271 
	C215.580521,160.681396 218.137329,162.849731 220.126633,162.940506 
	C221.650620,163.010056 223.882477,160.246262 224.751053,158.279587 
	C225.550430,156.469620 224.901093,154.040054 224.979019,151.886642 
	C225.103683,148.441299 223.699234,145.775085 220.245926,145.361191 
	C216.458969,144.907318 214.522110,147.330276 214.178391,151.879730 
M296.737427,145.262909 
	C291.996429,147.746246 289.972931,157.860352 293.577606,161.541183 
	C295.934845,163.948242 298.675293,163.984283 301.116089,161.726639 
	C305.295685,157.860626 302.876190,147.121567 296.737427,145.262909 
z"/>
<path fill="#F2F0F1" opacity="1.000000" stroke="none" 
	d="
M382.512543,294.678558 
	C393.199249,292.131592 400.596802,294.659576 403.098694,302.700378 
	C404.361481,306.758789 404.776367,311.719757 403.680328,315.758575 
	C399.740692,330.275787 395.829041,344.901367 390.349854,358.875549 
	C382.755371,378.244659 369.764862,393.990601 353.530029,407.005127 
	C337.038879,420.225159 318.346893,428.839600 297.804871,433.552460 
	C296.524323,433.846252 295.180908,433.866089 293.205627,433.733612 
	C284.887970,430.746277 277.151825,428.242798 269.590210,425.292175 
	C248.469452,417.050568 231.170670,403.458527 217.502533,385.632141 
	C196.902924,358.765472 188.165512,327.677979 187.263855,293.956909 
	C189.779709,291.878662 192.047668,290.034149 194.679901,288.135132 
	C198.866806,287.035858 202.630478,285.550018 206.523224,285.029572 
	C217.926453,283.504974 226.509995,289.110168 234.777313,296.179749 
	C239.347260,300.087616 244.679733,303.832062 250.312714,305.616119 
	C261.852264,309.270966 272.461792,306.024200 281.010803,297.477509 
	C293.032837,285.458740 306.539612,281.095642 322.931488,288.435974 
	C325.354401,290.445892 327.448639,292.360474 329.784821,293.910339 
	C335.929535,297.986847 341.707977,303.301666 348.487396,305.590027 
	C361.910522,310.120972 372.979370,304.022430 382.512543,294.678558 
z"/>
<path fill="#F7DD5A" opacity="1.000000" stroke="none" 
	d="
M322.713074,288.174408 
	C306.539612,281.095642 293.032837,285.458740 281.010803,297.477509 
	C272.461792,306.024200 261.852264,309.270966 250.312714,305.616119 
	C244.679733,303.832062 239.347260,300.087616 234.777313,296.179749 
	C226.509995,289.110168 217.926453,283.504974 206.523224,285.029572 
	C202.630478,285.550018 198.866806,287.035858 194.345200,287.972290 
	C192.756714,286.895203 191.663589,286.046753 191.009506,284.939026 
	C185.105988,274.940979 178.195145,265.356689 173.704025,254.751434 
	C168.059036,241.421494 164.072815,227.343246 160.044601,213.393356 
	C157.954849,206.156433 157.317032,198.500244 156.023300,191.033463 
	C156.238968,186.152618 156.138687,181.232758 156.735748,176.399033 
	C157.998337,166.177185 159.625198,156.000305 161.200439,145.415344 
	C161.864243,146.107712 162.958771,147.211197 162.915848,148.268509 
	C162.390701,161.206757 164.157410,173.717346 168.792953,185.878296 
	C175.385941,203.174423 185.676605,217.864792 199.588074,229.939346 
	C206.855255,236.246964 218.335571,231.758057 220.030838,222.326630 
	C220.197189,221.401077 220.550217,220.509094 220.942459,219.172684 
	C246.145050,243.298218 271.085266,243.197662 295.630066,219.549133 
	C297.212708,222.663086 298.241699,226.246536 300.474731,228.760468 
	C305.297211,234.189621 312.847748,234.103424 318.266113,229.252792 
	C335.486328,213.836807 347.417206,195.065598 352.077332,172.408508 
	C353.950317,163.302277 353.156097,153.649063 353.612762,144.246613 
	C353.646667,143.548767 353.979675,142.865448 354.513550,142.117767 
	C359.227753,156.682526 361.882446,171.518463 360.524719,186.871841 
	C360.426819,187.979218 360.744720,189.123367 360.771698,190.999619 
	C360.453827,192.541183 360.177734,193.322723 360.021637,194.127533 
	C357.667969,206.264633 356.432281,218.756958 352.696167,230.450851 
	C348.477814,243.654221 342.532043,256.398560 336.325317,268.837463 
	C332.845673,275.810913 327.317963,281.762451 322.713074,288.174408 
z"/>
<path fill="#E8E6E8" opacity="1.000000" stroke="none" 
	d="
M187.015945,294.190613 
	C188.165512,327.677979 196.902924,358.765472 217.502533,385.632141 
	C231.170670,403.458527 248.469452,417.050568 269.590210,425.292175 
	C277.151825,428.242798 284.887970,430.746277 292.782227,433.734467 
	C293.020020,434.015076 293.002258,434.001312 292.618164,434.000244 
	C290.822845,434.333466 289.411682,434.667755 288.000488,435.002075 
	C288.000488,435.002075 288.000000,435.000000 287.784790,435.100952 
	C287.300110,435.394562 287.121338,435.650543 287.033295,435.969849 
	C271.645660,436.642426 256.114380,438.964020 240.900848,437.638489 
	C210.771088,435.013336 183.239212,424.633453 159.932785,404.478149 
	C140.616730,387.773682 127.656479,367.091644 119.764565,342.926605 
	C115.829590,330.877716 113.205566,318.655609 113.064453,306.004059 
	C112.956833,296.355011 125.189430,289.730652 134.370239,294.838165 
	C136.522507,296.390411 138.047729,297.657654 139.595367,298.896912 
	C149.370468,306.724243 160.250397,309.655914 171.963440,304.400909 
	C177.411301,301.956726 182.024429,297.651947 187.015945,294.190613 
z"/>
<path fill="#F5C95E" opacity="1.000000" stroke="none" 
	d="
M322.931488,288.435974 
	C327.317963,281.762451 332.845673,275.810913 336.325317,268.837463 
	C342.532043,256.398560 348.477814,243.654221 352.696167,230.450851 
	C356.432281,218.756958 357.667969,206.264633 360.021637,194.127533 
	C360.177734,193.322723 360.453827,192.541183 360.836731,191.372360 
	C372.012146,198.392487 377.843567,209.561523 382.371948,221.400986 
	C387.145966,233.882706 389.519470,247.115616 388.593811,260.364075 
	C387.805847,271.641937 384.779541,282.763428 382.628021,294.316345 
	C372.979370,304.022430 361.910522,310.120972 348.487396,305.590027 
	C341.707977,303.301666 335.929535,297.986847 329.784821,293.910339 
	C327.448639,292.360474 325.354401,290.445892 322.931488,288.435974 
z"/>
<path fill="#F5C95E" opacity="1.000000" stroke="none" 
	d="
M187.263855,293.956909 
	C182.024429,297.651947 177.411301,301.956726 171.963440,304.400909 
	C160.250397,309.655914 149.370468,306.724243 139.595367,298.896912 
	C138.047729,297.657654 136.522507,296.390411 134.762146,294.917023 
	C132.427567,283.507507 128.771378,272.350647 128.527725,261.119751 
	C128.010208,237.266891 133.193207,214.657852 149.718155,196.094315 
	C151.352951,194.257858 153.490555,192.869003 155.709045,191.152924 
	C157.317032,198.500244 157.954849,206.156433 160.044601,213.393356 
	C164.072815,227.343246 168.059036,241.421494 173.704025,254.751434 
	C178.195145,265.356689 185.105988,274.940979 191.009506,284.939026 
	C191.663589,286.046753 192.756714,286.895203 193.980927,288.026794 
	C192.047668,290.034149 189.779709,291.878662 187.263855,293.956909 
z"/>
<path fill="#F2F0F1" opacity="1.000000" stroke="none" 
	d="
M288.388062,435.003845 
	C289.411682,434.667755 290.822845,434.333466 292.622925,434.004822 
	C291.599731,434.342194 290.187683,434.673920 288.388062,435.003845 
z"/>
<path fill="#F2F0F1" opacity="1.000000" stroke="none" 
	d="
M287.249695,435.870972 
	C287.121338,435.650543 287.300110,435.394562 287.785706,435.101379 
	C287.911896,435.319519 287.733307,435.576599 287.249695,435.870972 
z"/>
<path fill="#F6AD41" opacity="1.000000" stroke="none" 
	d="
M264.971558,161.026947 
	C265.636780,161.037506 266.332367,160.924088 266.962433,161.078262 
	C271.922089,162.291931 278.115417,162.576141 279.718353,168.280640 
	C281.613129,175.023636 278.415833,181.009583 273.371307,185.660797 
	C271.461426,187.421799 268.947205,188.527359 266.167847,189.692596 
	C263.266083,187.646942 260.228119,186.295151 258.657471,183.957458 
	C250.568008,171.917465 249.945435,164.873138 264.247314,161.672897 
	C264.523102,161.611176 264.731628,161.248962 264.971558,161.026947 
z"/>
<path fill="#F7A014" opacity="1.000000" stroke="none" 
	d="
M264.568756,160.961700 
	C264.731628,161.248962 264.523102,161.611176 264.247314,161.672897 
	C249.945435,164.873138 250.568008,171.917465 258.657471,183.957458 
	C260.228119,186.295151 263.266083,187.646942 265.815491,189.729034 
	C254.411942,195.455658 237.912888,187.410629 236.676529,171.101639 
	C236.491959,168.666962 239.373520,164.730881 241.812469,163.606979 
	C248.803635,160.385345 256.406769,159.254227 264.568756,160.961700 
z"/>
<path fill="#72616D" opacity="1.000000" stroke="none" 
	d="
M214.182312,151.455109 
	C214.522110,147.330276 216.458969,144.907318 220.245926,145.361191 
	C223.699234,145.775085 225.103683,148.441299 224.979019,151.886642 
	C224.901093,154.040054 225.550430,156.469620 224.751053,158.279587 
	C223.882477,160.246262 221.650620,163.010056 220.126633,162.940506 
	C218.137329,162.849731 215.580521,160.681396 214.531570,158.728271 
	C213.553635,156.907410 214.230148,154.197998 214.182312,151.455109 
z"/>
<path fill="#72616D" opacity="1.000000" stroke="none" 
	d="
M297.115906,145.235840 
	C302.876190,147.121567 305.295685,157.860626 301.116089,161.726639 
	C298.675293,163.984283 295.934845,163.948242 293.577606,161.541183 
	C289.972931,157.860352 291.996429,147.746246 297.115906,145.235840 
z"/>
</svg>