<svg version="1.1" id="Layer_1" xmlns="http://www.w3.org/2000/svg" xmlns:xlink="http://www.w3.org/1999/xlink" x="0px" y="0px"
	 width="100%" viewBox="0 0 512 512" enable-background="new 0 0 512 512" xml:space="preserve">
<path fill="#FFFFFF" opacity="1.000000" stroke="none" 
	d="
M295.000000,513.000000 
	C196.690536,513.000000 98.881065,513.000000 1.035801,513.000000 
	C1.035801,342.398834 1.035801,171.797684 1.035801,1.098256 
	C171.559479,1.098256 342.119049,1.098256 512.839294,1.098256 
	C512.839294,171.666550 512.839294,342.333252 512.839294,513.000000 
	C440.464325,513.000000 367.982147,513.000000 295.000000,513.000000 
M21.178743,339.214783 
	C28.980576,355.528290 35.853397,372.371735 44.789932,388.037964 
	C60.351425,415.318115 81.793152,437.862579 106.767174,456.679199 
	C131.200027,475.088043 158.279648,488.710602 187.860092,497.128021 
	C206.079193,502.312439 224.642288,505.934753 243.483612,506.741272 
	C257.675842,507.348755 271.982056,505.932251 286.207397,504.971069 
	C305.685150,503.654907 324.373322,498.617584 342.649628,491.957275 
	C361.789429,484.982269 379.936554,475.957306 396.746704,464.475342 
	C415.468353,451.687653 432.884247,437.186523 446.923645,419.313721 
	C457.335785,406.058594 467.312286,392.275848 475.809479,377.749329 
	C486.209290,359.970245 493.711639,340.791595 498.843353,320.642914 
	C503.240936,303.376740 506.306396,285.902496 506.707733,268.251953 
	C507.079163,251.913666 505.872467,235.415100 503.845856,219.176178 
	C500.893860,195.522018 493.813232,172.838501 483.579315,151.277603 
	C469.620819,121.869614 450.759918,96.072449 426.664246,74.012184 
	C407.401184,56.376369 386.145050,41.929626 362.566467,30.779963 
	C336.219879,18.321386 308.378693,10.625160 279.526520,8.366382 
	C255.919922,6.518270 232.087616,7.314962 208.621887,12.234968 
	C173.041595,19.695000 140.333969,33.573650 110.929497,55.044838 
	C91.786491,69.023087 74.906197,85.340614 60.339024,104.054405 
	C45.664707,122.905838 33.914165,143.361832 25.068251,165.607040 
	C15.424156,189.859436 9.765241,214.980850 8.190496,240.904327 
	C7.427782,253.460098 8.612640,266.138550 9.000122,278.758850 
	C9.631639,299.327545 14.572956,319.041626 21.178743,339.214783 
z"/>
<path fill="#EBEBEB" opacity="1.000000" stroke="none" 
	d="
M21.084232,338.834473 
	C14.572956,319.041626 9.631639,299.327545 9.000122,278.758850 
	C8.612640,266.138550 7.427782,253.460098 8.190496,240.904327 
	C9.765241,214.980850 15.424156,189.859436 25.068251,165.607040 
	C33.914165,143.361832 45.664707,122.905838 60.339024,104.054405 
	C74.906197,85.340614 91.786491,69.023087 110.929497,55.044838 
	C140.333969,33.573650 173.041595,19.695000 208.621887,12.234968 
	C232.087616,7.314962 255.919922,6.518270 279.526520,8.366382 
	C308.378693,10.625160 336.219879,18.321386 362.566467,30.779963 
	C386.145050,41.929626 407.401184,56.376369 426.664246,74.012184 
	C450.759918,96.072449 469.620819,121.869614 483.579315,151.277603 
	C493.813232,172.838501 500.893860,195.522018 503.845856,219.176178 
	C505.872467,235.415100 507.079163,251.913666 506.707733,268.251953 
	C506.306396,285.902496 503.240936,303.376740 498.843353,320.642914 
	C493.711639,340.791595 486.209290,359.970245 475.809479,377.749329 
	C467.312286,392.275848 457.335785,406.058594 446.923645,419.313721 
	C432.884247,437.186523 415.468353,451.687653 396.746704,464.475342 
	C379.936554,475.957306 361.789429,484.982269 342.649628,491.957275 
	C324.373322,498.617584 305.685150,503.654907 286.207397,504.971069 
	C271.982056,505.932251 257.675842,507.348755 243.483612,506.741272 
	C224.642288,505.934753 206.079193,502.312439 187.860092,497.128021 
	C158.279648,488.710602 131.200027,475.088043 106.767174,456.679199 
	C81.793152,437.862579 60.351425,415.318115 44.789932,388.037964 
	C35.853397,372.371735 28.980576,355.528290 21.084232,338.834473 
M412.144714,107.200584 
	C411.792328,107.022400 411.439972,106.844215 410.884033,106.235992 
	C410.630219,105.997948 410.334198,105.919655 409.599731,105.524628 
	C409.034363,105.287094 408.469025,105.049561 407.514954,104.257729 
	C394.898804,96.940880 381.897369,96.138512 368.472626,101.875702 
	C356.638947,106.932907 347.882965,115.495888 340.060089,125.973167 
	C339.118805,125.682472 338.109314,125.524704 337.246246,125.081635 
	C316.559784,114.462311 294.159088,109.855499 271.348511,108.236626 
	C244.381012,106.322746 217.703384,109.196419 192.025208,118.493752 
	C186.121506,120.631310 180.236053,122.819359 174.006561,124.362991 
	C162.909698,108.850929 148.803162,98.126808 128.911209,98.247421 
	C118.628296,98.309761 109.048759,101.573029 101.322693,110.096184 
	C98.732330,112.682915 96.085136,115.215515 93.561172,117.865494 
	C80.816605,131.246368 75.905724,147.184921 78.754990,165.341980 
	C80.831123,178.572281 88.769615,188.242752 98.962875,197.017853 
	C98.444885,198.402863 97.951996,199.797867 97.404922,201.171295 
	C92.875946,212.541306 87.261597,223.615723 84.079590,235.350098 
	C80.301163,249.283875 78.612572,263.784332 76.021584,278.967438 
	C76.726837,289.208038 76.461960,299.630493 78.340462,309.651154 
	C82.182808,330.147736 91.713409,348.140900 105.986542,363.385895 
	C126.706726,385.516937 153.212616,397.854950 181.573425,406.565369 
	C200.075943,412.247986 219.307190,414.746124 238.551804,415.779846 
	C263.914520,417.142212 289.321960,416.169708 314.227356,410.710388 
	C337.012634,405.715759 359.036896,398.665894 379.018585,385.795990 
	C390.208984,378.588409 400.473206,370.508911 409.439575,360.891144 
	C423.591461,345.711151 431.535767,327.249908 435.778015,307.110748 
	C436.351318,304.389221 437.695984,300.109528 436.499451,299.073364 
	C433.469757,296.449738 435.913635,295.571503 437.307892,293.264954 
	C437.542419,291.640869 438.169250,289.959900 437.943542,288.402527 
	C436.970520,281.687775 435.514984,275.036163 434.734406,268.303711 
	C434.438110,265.748291 436.285858,262.871094 435.778839,260.426208 
	C433.865631,251.200104 432.113464,241.830063 428.941376,233.002472 
	C424.609863,220.948410 419.035858,209.340836 414.740265,197.478256 
	C422.438751,192.526962 428.591919,186.089813 432.862518,177.998322 
	C444.650269,155.663986 435.079224,122.860481 412.264221,107.629105 
	C412.264221,107.629105 412.324402,107.769989 412.144714,107.200584 
z"/>
<path fill="#E0E0E0" opacity="1.000000" stroke="none" 
	d="
M413.994476,197.541870 
	C419.035858,209.340836 424.609863,220.948410 428.941376,233.002472 
	C432.113464,241.830063 433.865631,251.200104 435.778839,260.426208 
	C436.285858,262.871094 434.438110,265.748291 434.734406,268.303711 
	C435.514984,275.036163 436.970520,281.687775 437.943542,288.402527 
	C438.169250,289.959900 437.542419,291.640869 436.844269,293.351959 
	C436.258911,291.291626 436.094849,289.145569 436.028076,286.996521 
	C435.968201,285.070099 436.015442,283.140350 436.015442,281.212036 
	C431.322296,305.375427 420.260681,325.885956 402.679535,342.551056 
	C389.478821,355.063995 374.206329,364.696320 357.356598,371.959167 
	C329.543152,383.947662 300.314789,389.183990 270.377869,390.818512 
	C258.307281,391.477539 246.129150,390.539368 234.016373,389.975525 
	C210.500443,388.880768 187.735550,383.872589 165.598221,375.994781 
	C145.654144,368.897430 127.480133,358.563416 111.920303,344.213593 
	C97.530495,330.942780 86.884560,314.978790 81.154434,296.043274 
	C79.347076,290.070770 77.725151,284.042175 76.018356,278.039246 
	C78.612572,263.784332 80.301163,249.283875 84.079590,235.350098 
	C87.261597,223.615723 92.875946,212.541306 97.404922,201.171295 
	C97.951996,199.797867 98.444885,198.402863 99.315445,196.551971 
	C104.186760,189.166977 108.705498,182.247864 113.509384,175.143158 
	C124.074966,164.625443 133.724106,153.542679 144.835251,144.198334 
	C153.751236,136.700073 164.440094,131.309860 174.342209,124.984177 
	C180.236053,122.819359 186.121506,120.631310 192.025208,118.493752 
	C217.703384,109.196419 244.381012,106.322746 271.348511,108.236626 
	C294.159088,109.855499 316.559784,114.462311 337.246246,125.081635 
	C338.109314,125.524704 339.118805,125.682472 340.572296,126.301483 
	C345.140137,128.927078 349.258820,131.120514 353.240662,133.539307 
	C372.432983,145.197876 388.215393,160.573868 401.923279,178.629044 
	C406.022095,185.143585 410.008270,191.342728 413.994476,197.541870 
M231.264038,276.254547 
	C226.951416,282.468964 226.846481,288.355286 232.678711,293.651062 
	C238.633026,299.057648 245.692093,303.247589 252.374771,308.806519 
	C251.381638,311.276794 251.048126,314.444611 249.290634,316.106628 
	C235.685150,328.973358 219.883408,331.336761 202.570374,324.904999 
	C198.830276,323.515564 195.777817,324.032013 194.394135,327.906219 
	C193.061508,331.637421 195.346359,333.806854 198.711685,335.083954 
	C208.565994,338.823547 218.654739,340.174713 229.118774,338.370667 
	C240.285522,336.445435 249.557098,330.861755 256.533875,324.486816 
	C265.627136,329.062592 273.542908,334.088135 282.159332,337.127289 
	C293.881958,341.262177 305.843933,339.401001 317.339630,334.947815 
	C320.708984,333.642639 322.762024,331.304596 321.204712,327.589020 
	C319.709290,324.021149 316.796783,323.440399 313.315796,324.870331 
	C311.626587,325.564270 309.867828,326.120117 308.100861,326.588867 
	C292.560669,330.711182 278.813385,327.409607 266.786469,316.698578 
	C264.081177,314.289276 262.543793,311.655212 264.106873,307.731873 
	C270.607269,302.941132 277.643585,298.715118 283.455688,293.199127 
	C289.143555,287.801056 288.709503,281.381439 283.645813,275.411530 
	C280.723938,273.937531 277.949036,271.768066 274.853912,271.114136 
	C263.560852,268.728058 252.112350,268.682495 240.835831,271.149933 
	C237.658173,271.845245 234.863831,274.292389 231.264038,276.254547 
M229.118515,229.165604 
	C224.588837,214.318512 214.311157,205.759705 199.366165,203.006058 
	C168.776947,197.369965 137.392319,221.437592 133.424286,253.556473 
	C132.950897,258.675018 131.906677,263.815002 132.097992,268.908539 
	C133.229446,299.032288 157.727997,315.284790 185.149368,303.683899 
	C206.071396,294.832611 220.704330,279.354614 228.235336,257.765167 
	C231.387573,248.728546 232.388214,239.317825 229.118515,229.165604 
M379.122284,254.160095 
	C378.673920,252.215240 378.277374,250.256744 377.769257,248.327621 
	C370.905182,222.268997 352.270142,205.566269 326.596832,202.440094 
	C305.592804,199.882492 287.524109,211.631699 282.463409,231.608093 
	C282.078186,235.074661 281.280670,238.552200 281.372711,242.006058 
	C282.134613,270.598114 308.990845,301.667450 337.165314,306.750946 
	C353.596649,309.715637 368.554413,302.564178 375.578827,288.116852 
	C380.720825,277.541168 381.344971,266.381989 379.122284,254.160095 
z"/>
<path fill="#C4C4C4" opacity="1.000000" stroke="none" 
	d="
M76.019974,278.503357 
	C77.725151,284.042175 79.347076,290.070770 81.154434,296.043274 
	C86.884560,314.978790 97.530495,330.942780 111.920303,344.213593 
	C127.480133,358.563416 145.654144,368.897430 165.598221,375.994781 
	C187.735550,383.872589 210.500443,388.880768 234.016373,389.975525 
	C246.129150,390.539368 258.307281,391.477539 270.377869,390.818512 
	C300.314789,389.183990 329.543152,383.947662 357.356598,371.959167 
	C374.206329,364.696320 389.478821,355.063995 402.679535,342.551056 
	C420.260681,325.885956 431.322296,305.375427 436.015442,281.212036 
	C436.015442,283.140350 435.968201,285.070099 436.028076,286.996521 
	C436.094849,289.145569 436.258911,291.291626 436.673645,293.735107 
	C435.913635,295.571503 433.469757,296.449738 436.499451,299.073364 
	C437.695984,300.109528 436.351318,304.389221 435.778015,307.110748 
	C431.535767,327.249908 423.591461,345.711151 409.439575,360.891144 
	C400.473206,370.508911 390.208984,378.588409 379.018585,385.795990 
	C359.036896,398.665894 337.012634,405.715759 314.227356,410.710388 
	C289.321960,416.169708 263.914520,417.142212 238.551804,415.779846 
	C219.307190,414.746124 200.075943,412.247986 181.573425,406.565369 
	C153.212616,397.854950 126.706726,385.516937 105.986542,363.385895 
	C91.713409,348.140900 82.182808,330.147736 78.340462,309.651154 
	C76.461960,299.630493 76.726837,289.208038 76.019974,278.503357 
z"/>
<path fill="#525256" opacity="1.000000" stroke="none" 
	d="
M401.810638,178.313629 
	C388.215393,160.573868 372.432983,145.197876 353.240662,133.539307 
	C349.258820,131.120514 345.140137,128.927078 340.937653,126.306488 
	C347.882965,115.495888 356.638947,106.932907 368.472626,101.875702 
	C381.897369,96.138512 394.898804,96.940880 407.878387,104.808487 
	C408.826508,105.573212 409.411224,105.787170 409.995911,106.001129 
	C410.334198,105.919655 410.630219,105.997948 411.079437,106.742691 
	C411.624695,107.422913 411.974548,107.596451 412.324402,107.769989 
	C412.324402,107.769989 412.264221,107.629105 412.227051,107.995163 
	C413.302795,110.924744 414.408203,113.491508 415.529755,116.051216 
	C423.131622,133.400986 423.607239,150.322525 412.080353,166.289688 
	C409.005402,170.549118 405.252350,174.319000 401.810638,178.313629 
z"/>
<path fill="#525256" opacity="1.000000" stroke="none" 
	d="
M174.174377,124.673584 
	C164.440094,131.309860 153.751236,136.700073 144.835251,144.198334 
	C133.724106,153.542679 124.074966,164.625443 113.302841,174.841354 
	C111.545341,173.987106 110.090446,173.452713 109.042603,172.479904 
	C96.865242,161.174698 92.931221,146.971329 95.660576,131.027679 
	C96.896515,123.807846 99.795052,116.872635 101.939331,109.808296 
	C109.048759,101.573029 118.628296,98.309761 128.911209,98.247421 
	C148.803162,98.126808 162.909698,108.850929 174.174377,124.673584 
z"/>
<path fill="#46464A" opacity="1.000000" stroke="none" 
	d="
M401.923279,178.629028 
	C405.252350,174.319000 409.005402,170.549118 412.080353,166.289688 
	C423.607239,150.322525 423.131622,133.400986 415.529755,116.051216 
	C414.408203,113.491508 413.302795,110.924744 412.301208,107.975998 
	C435.079224,122.860481 444.650269,155.663986 432.862518,177.998322 
	C428.591919,186.089813 422.438751,192.526962 414.367371,197.510071 
	C410.008270,191.342728 406.022095,185.143585 401.923279,178.629028 
z"/>
<path fill="#46464A" opacity="1.000000" stroke="none" 
	d="
M101.631012,109.952240 
	C99.795052,116.872635 96.896515,123.807846 95.660576,131.027679 
	C92.931221,146.971329 96.865242,161.174698 109.042603,172.479904 
	C110.090446,173.452713 111.545341,173.987106 113.017700,175.026947 
	C108.705498,182.247864 104.186760,189.166977 99.323166,196.192627 
	C88.769615,188.242752 80.831123,178.572281 78.754990,165.341980 
	C75.905724,147.184921 80.816605,131.246368 93.561172,117.865494 
	C96.085136,115.215515 98.732330,112.682915 101.631012,109.952240 
z"/>
<path fill="#46464A" opacity="1.000000" stroke="none" 
	d="
M409.797821,105.762878 
	C409.411224,105.787170 408.826508,105.573212 408.072754,105.085632 
	C408.469025,105.049561 409.034363,105.287094 409.797821,105.762878 
z"/>
<path fill="#46464A" opacity="1.000000" stroke="none" 
	d="
M412.234558,107.485291 
	C411.974548,107.596451 411.624695,107.422913 411.181213,106.957703 
	C411.439972,106.844215 411.792328,107.022400 412.234558,107.485291 
z"/>
<path fill="#525256" opacity="1.000000" stroke="none" 
	d="
M282.815369,230.909073 
	C287.524109,211.631699 305.592804,199.882492 326.596832,202.440094 
	C352.270142,205.566269 370.905182,222.268997 377.769257,248.327621 
	C378.277374,250.256744 378.673920,252.215240 378.808746,254.774231 
	C375.932404,260.156586 374.044525,265.475311 370.685272,269.593903 
	C358.726105,284.256592 341.357086,284.765320 325.562195,277.662994 
	C310.189514,270.750519 298.452820,259.439514 289.974335,244.875977 
	C287.345978,240.361252 285.188446,235.572418 282.815369,230.909073 
M317.582367,259.082367 
	C318.916809,259.739349 320.200958,260.539825 321.594482,261.028076 
	C327.141296,262.971466 333.507935,260.599457 336.730774,255.485397 
	C339.887482,250.476303 339.342682,244.217545 335.367035,239.818176 
	C330.823242,234.790085 325.237305,233.657135 319.663239,236.633072 
	C310.568329,241.488724 309.461884,250.701248 317.582367,259.082367 
z"/>
<path fill="#525256" opacity="1.000000" stroke="none" 
	d="
M133.863770,252.928268 
	C137.392319,221.437592 168.776947,197.369965 199.366165,203.006058 
	C214.311157,205.759705 224.588837,214.318512 228.829727,229.771454 
	C227.981537,232.274048 227.605591,234.249115 226.834610,236.055573 
	C218.298843,256.055664 204.170746,270.725250 183.963425,278.768982 
	C163.698746,286.835541 144.421768,279.468811 136.196732,261.271576 
	C135.021011,258.670410 134.622162,255.718079 133.863770,252.928268 
M194.805420,237.497223 
	C193.437210,236.918350 192.103241,236.233139 190.694687,235.779480 
	C185.333542,234.052841 179.178574,236.130234 176.210083,240.592697 
	C172.961853,245.475662 173.117722,252.309174 176.582809,256.933716 
	C179.767639,261.184204 186.198746,262.976959 191.337463,261.046814 
	C201.157379,257.358337 203.106201,246.279831 194.805420,237.497223 
z"/>
<path fill="#46464A" opacity="1.000000" stroke="none" 
	d="
M133.644028,253.242371 
	C134.622162,255.718079 135.021011,258.670410 136.196732,261.271576 
	C144.421768,279.468811 163.698746,286.835541 183.963425,278.768982 
	C204.170746,270.725250 218.298843,256.055664 226.834610,236.055573 
	C227.605591,234.249115 227.981537,232.274048 228.841064,230.150589 
	C232.388214,239.317825 231.387573,248.728546 228.235336,257.765167 
	C220.704330,279.354614 206.071396,294.832611 185.149368,303.683899 
	C157.727997,315.284790 133.229446,299.032288 132.097992,268.908539 
	C131.906677,263.815002 132.950897,258.675018 133.644028,253.242371 
z"/>
<path fill="#46464A" opacity="1.000000" stroke="none" 
	d="
M282.639404,231.258575 
	C285.188446,235.572418 287.345978,240.361252 289.974335,244.875977 
	C298.452820,259.439514 310.189514,270.750519 325.562195,277.662994 
	C341.357086,284.765320 358.726105,284.256592 370.685272,269.593903 
	C374.044525,265.475311 375.932404,260.156586 378.785309,255.179260 
	C381.344971,266.381989 380.720825,277.541168 375.578827,288.116852 
	C368.554413,302.564178 353.596649,309.715637 337.165314,306.750946 
	C308.990845,301.667450 282.134613,270.598114 281.372711,242.006058 
	C281.280670,238.552200 282.078186,235.074661 282.639404,231.258575 
z"/>
<path fill="#2E2E30" opacity="1.000000" stroke="none" 
	d="
M263.396881,307.974640 
	C262.543793,311.655212 264.081177,314.289276 266.786469,316.698578 
	C278.813385,327.409607 292.560669,330.711182 308.100861,326.588867 
	C309.867828,326.120117 311.626587,325.564270 313.315796,324.870331 
	C316.796783,323.440399 319.709290,324.021149 321.204712,327.589020 
	C322.762024,331.304596 320.708984,333.642639 317.339630,334.947815 
	C305.843933,339.401001 293.881958,341.262177 282.159332,337.127289 
	C273.542908,334.088135 265.627136,329.062592 256.533875,324.486816 
	C249.557098,330.861755 240.285522,336.445435 229.118774,338.370667 
	C218.654739,340.174713 208.565994,338.823547 198.711685,335.083954 
	C195.346359,333.806854 193.061508,331.637421 194.394135,327.906219 
	C195.777817,324.032013 198.830276,323.515564 202.570374,324.904999 
	C219.883408,331.336761 235.685150,328.973358 249.290634,316.106628 
	C251.048126,314.444611 251.381638,311.276794 252.668533,308.479950 
	C256.487823,310.856415 259.959961,310.443054 263.396881,307.974640 
z"/>
<path fill="#46464A" opacity="1.000000" stroke="none" 
	d="
M263.751892,307.853271 
	C259.959961,310.443054 256.487823,310.856415 252.614899,308.061768 
	C245.692093,303.247589 238.633026,299.057648 232.678711,293.651062 
	C226.846481,288.355286 226.951416,282.468964 231.865204,276.287842 
	C233.441605,277.431152 234.229172,278.829803 235.421921,279.605286 
	C244.438705,285.467621 254.499771,287.319580 264.921295,285.712677 
	C272.109131,284.604309 278.973236,281.939758 283.944885,276.030121 
	C288.709503,281.381439 289.143555,287.801056 283.455688,293.199127 
	C277.643585,298.715118 270.607269,302.941132 263.751892,307.853271 
z"/>
<path fill="#525256" opacity="1.000000" stroke="none" 
	d="
M283.795349,275.720825 
	C278.973236,281.939758 272.109131,284.604309 264.921295,285.712677 
	C254.499771,287.319580 244.438705,285.467621 235.421921,279.605286 
	C234.229172,278.829803 233.441605,277.431152 232.180023,276.128540 
	C234.863831,274.292389 237.658173,271.845245 240.835831,271.149933 
	C252.112350,268.682495 263.560852,268.728058 274.853912,271.114136 
	C277.949036,271.768066 280.723938,273.937531 283.795349,275.720825 
z"/>
<path fill="#2B2B2D" opacity="1.000000" stroke="none" 
	d="
M317.304840,258.831543 
	C309.461884,250.701248 310.568329,241.488724 319.663239,236.633072 
	C325.237305,233.657135 330.823242,234.790085 335.367035,239.818176 
	C339.342682,244.217545 339.887482,250.476303 336.730774,255.485397 
	C333.507935,260.599457 327.141296,262.971466 321.594482,261.028076 
	C320.200958,260.539825 318.916809,259.739349 317.304840,258.831543 
z"/>
<path fill="#2B2B2D" opacity="1.000000" stroke="none" 
	d="
M195.100525,237.737244 
	C203.106201,246.279831 201.157379,257.358337 191.337463,261.046814 
	C186.198746,262.976959 179.767639,261.184204 176.582809,256.933716 
	C173.117722,252.309174 172.961853,245.475662 176.210083,240.592697 
	C179.178574,236.130234 185.333542,234.052841 190.694687,235.779480 
	C192.103241,236.233139 193.437210,236.918350 195.100525,237.737244 
z"/>
</svg>