<svg width="200" height="65" viewBox="0 0 200 65" fill="none" xmlns="http://www.w3.org/2000/svg">
<path d="M48 7C53.5228 7 58 11.4772 58 17V41C58 46.5228 53.5228 51 48 51H24C18.4772 51 14 46.5228 14 41V17C14 11.4772 18.4772 7 24 7H48ZM37.2061 15.4922C35.0009 15.0927 32.7415 15.2669 30.4287 16.0137C28.0995 16.7659 26.1576 17.9489 24.6025 19.5625C23.0531 21.1652 22.0406 23.1224 21.5654 25.4346C21.0959 27.7358 21.3206 30.3092 22.2393 33.1543C23.1526 35.9827 24.4738 38.1974 26.2031 39.7979C27.9382 41.3873 29.9059 42.3873 32.1055 42.7979C34.3106 43.1973 36.5779 43.0217 38.9072 42.2695C41.2199 41.5228 43.1551 40.3465 44.7129 38.7412C46.268 37.1275 47.2848 35.1682 47.7627 32.8643C48.2379 30.552 48.0163 27.9731 47.0977 25.1279C46.1789 22.2827 44.8513 20.065 43.1162 18.4756C41.3785 16.878 39.4085 15.8834 37.2061 15.4922ZM48.5 37C47.1193 37 46 38.1193 46 39.5C46 40.8807 47.1193 42 48.5 42C49.8807 42 51 40.8807 51 39.5C51 38.1193 49.8807 37 48.5 37Z" fill="#3182F6"/>
<path d="M32.3792 22.0532C33.5272 21.6825 34.581 21.6453 35.5403 21.9418C36.5053 22.2274 37.3584 22.8345 38.0989 23.7622C38.8437 24.68 35.8079 29.9806 36.302 31.5112C36.7963 33.0419 40.6674 30.323 40.6009 31.5112C40.54 32.6883 40.2032 33.6796 39.5901 34.4838C38.9828 35.2768 38.105 35.8583 36.9573 36.229C35.8093 36.5997 34.7523 36.6424 33.7874 36.3569C32.8281 36.0603 31.9749 35.4541 31.2288 34.5375C30.4884 33.61 29.8715 32.3806 29.3772 30.85C28.883 29.3193 28.666 27.9647 28.7269 26.7875C28.7934 25.5996 29.1303 24.609 29.7376 23.8159C30.3506 23.0116 31.2312 22.4239 32.3792 22.0532ZM33.6614 26.7573C33.4727 26.1502 33.3196 25.6579 32.5696 25.8911C31.8198 26.1243 31.9727 26.6171 32.1614 27.2241C32.3501 27.8309 32.5034 28.3224 33.2532 28.0893C34.0032 27.8561 33.8502 27.3643 33.6614 26.7573Z" fill="#3182F6"/>
<path d="M14 40.5V59L27 51H34.5L14 40.5Z" fill="#3182F6"/>
<path d="M90.418 25.5505L83.4465 24.1649C81.9939 23.6829 83.4465 24.1649 81.9939 23.6829C80.8932 23.3176 83.4465 24.1649 81.9939 23.6829C80.6206 23.3434 80.5335 23.3434 80 23.3434C79.3113 23.3434 78.7196 23.4693 78.2249 23.721C77.7302 23.9726 77.4877 24.3308 77.4974 24.7955C77.4877 25.1246 77.6283 25.4295 77.9193 25.7102C78.22 25.991 78.7972 26.2088 79.6508 26.3636L84.1905 27.1768C86.4797 27.593 88.1821 28.2948 89.2976 29.2822C90.4228 30.2599 90.9903 31.5715 91 33.2172C90.9903 34.8047 90.515 36.1841 89.5741 37.3554C88.6429 38.517 87.3673 39.4173 85.7474 40.0562C84.1371 40.6854 82.2989 41 80.2328 41C76.8183 41 74.1459 40.303 72.2156 38.9091C70.295 37.5152 69.2231 35.6759 69 33.3914L78.6046 35.2783C77.7371 35.1079 80.291 35.5985 78.6046 35.2783C80.291 35.5985 78.6046 35.2783 80.291 35.5985C81.0282 35.5985 81.6345 35.4726 82.1098 35.221C82.5948 34.9693 82.8422 34.6111 82.8519 34.1465C82.8422 33.7205 82.6287 33.3817 82.2116 33.1301C81.8042 32.8784 81.164 32.6751 80.291 32.5202L76.3333 31.8232C74.0538 31.4263 72.3466 30.6713 71.2116 29.5581C70.0767 28.4449 69.5141 27.0122 69.5238 25.2601C69.5141 23.7113 69.9215 22.3996 70.746 21.3251C71.5802 20.2409 72.7685 19.4181 74.3108 18.8567C75.8629 18.2856 77.7011 18 79.8254 18C83.0556 18 85.6019 18.6679 87.4643 20.0038C89.3364 21.3396 90.321 23.1886 90.418 25.5505Z" fill="#3182F6"/>
<path d="M100.631 22.5508V27.3553H94.0007L94.0007 22.5508H100.631ZM94.0007 18.1307H100.631V35.0665C100.631 35.3227 100.675 35.5389 100.763 35.7151C100.851 35.8832 100.987 36.0113 101.171 36.0994C101.356 36.1795 101.592 36.2195 101.88 36.2195C102.08 36.2195 102.312 36.1955 102.577 36.1475C102.849 36.0994 103.049 36.0594 103.177 36.0274L104.138 40.6877C103.842 40.7758 103.417 40.8839 102.865 41.012C102.32 41.1401 101.672 41.2242 100.919 41.2642C99.3977 41.3443 98.1206 41.1882 97.0876 40.7958C96.0546 40.3954 95.2779 39.7668 94.7574 38.91C94.2369 38.0532 93.9847 36.9802 94.0007 35.691V18.1307Z" fill="#3182F6"/>
<circle cx="102.618" cy="23.5" r="1.5" fill="#3182F6"/>
<path d="M135.24 23.0327C136.239 26.1269 136.48 28.9313 135.963 31.446C135.443 33.9516 134.338 36.0819 132.647 37.8369C130.953 39.5828 128.848 40.8618 126.333 41.674C123.8 42.492 121.334 42.6837 118.936 42.2493C116.544 41.8028 114.404 40.7153 112.517 38.9868C110.637 37.2463 109.199 34.838 108.206 31.7619C107.207 28.6677 106.963 25.8693 107.473 23.3666C107.99 20.8519 109.091 18.7231 110.776 16.9801C112.467 15.2251 114.58 13.9386 117.113 13.1206C119.628 12.3085 122.085 12.1196 124.483 12.5541C126.878 12.9796 129.021 14.0611 130.911 15.7986C132.797 17.5272 134.24 19.9385 135.24 23.0327ZM123.5 29.9746C122.962 28.3099 126.265 22.5438 125.454 21.547C124.648 20.5382 123.721 19.8786 122.672 19.568C121.628 19.2455 120.482 19.2858 119.234 19.689C117.985 20.0921 117.028 20.7311 116.361 21.6057C115.7 22.4684 115.334 23.5458 115.262 24.838C115.196 26.1182 115.431 27.5906 115.969 29.2553C116.506 30.92 117.178 32.2568 117.983 33.2656C118.794 34.2624 119.722 34.922 120.765 35.2446C121.814 35.5551 122.963 35.5088 124.212 35.1056C125.46 34.7025 126.415 34.0696 127.076 33.2069C127.742 32.3322 128.109 31.2548 128.175 29.9746C128.247 28.6824 124.038 31.6393 123.5 29.9746Z" fill="#3182F6"/>
<path d="M149.514 15.8011V41H142.723V15.8011H149.514Z" fill="#3182F6"/>
<path d="M158.325 36.5213L158.375 28.4498H159.261L163.838 22.1008H171.466L163.788 31.9934H161.869L158.325 36.5213ZM152.223 41V15.8011H159.014V41H152.223ZM163.887 41L159.556 33.5191L163.985 28.6958L171.663 41H163.887Z" fill="#3182F6"/>
<circle cx="136.5" cy="38.5" r="2.5" fill="#3182F6"/>
<path d="M120.628 24.8046C120.834 25.4648 121 26 120.184 26.2536C119.369 26.5072 119.202 25.972 118.997 25.3118C118.792 24.6516 118.625 24.1165 119.441 23.8629C120.257 23.6093 120.423 24.1444 120.628 24.8046Z" fill="#3182F6"/>
</svg>
