<svg width="44" height="52" viewBox="0 0 44 52" fill="none" xmlns="http://www.w3.org/2000/svg">
<path d="M34 0C39.5228 0 44 4.47715 44 10V34C44 39.5228 39.5228 44 34 44H10C4.47715 44 0 39.5228 0 34V10C5.15422e-07 4.47715 4.47715 0 10 0H34ZM23.2061 8.49219C21.0009 8.09267 18.7415 8.26687 16.4287 9.01367C14.0995 9.76585 12.1576 10.9489 10.6025 12.5625C9.05313 14.1652 8.04064 16.1224 7.56543 18.4346C7.0959 20.7358 7.32061 23.3092 8.23926 26.1543C9.15257 28.9827 10.4738 31.1974 12.2031 32.7979C13.9382 34.3873 15.9059 35.3873 18.1055 35.7979C20.3106 36.1973 22.5779 36.0217 24.9072 35.2695C27.2199 34.5228 29.1551 33.3465 30.7129 31.7412C32.268 30.1275 33.2848 28.1682 33.7627 25.8643C34.2379 23.552 34.0163 20.9731 33.0977 18.1279C32.1789 15.2827 30.8513 13.065 29.1162 11.4756C27.3785 9.878 25.4085 8.88337 23.2061 8.49219ZM34.5 30C33.1193 30 32 31.1193 32 32.5C32 33.8807 33.1193 35 34.5 35C35.8807 35 37 33.8807 37 32.5C37 31.1193 35.8807 30 34.5 30Z" fill="#3182F6"/>
<path d="M18.3792 15.0532C19.5272 14.6825 20.581 14.6453 21.5403 14.9418C22.5053 15.2274 23.3584 15.8345 24.0989 16.7622C24.8437 17.68 21.8079 22.9806 22.302 24.5112C22.7963 26.0419 26.6674 23.323 26.6009 24.5112C26.54 25.6883 26.2032 26.6796 25.5901 27.4838C24.9828 28.2768 24.105 28.8583 22.9573 29.229C21.8093 29.5997 20.7523 29.6424 19.7874 29.3569C18.8281 29.0603 17.9749 28.4541 17.2288 27.5375C16.4884 26.61 15.8715 25.3806 15.3772 23.85C14.883 22.3193 14.666 20.9647 14.7269 19.7875C14.7934 18.5996 15.1303 17.609 15.7376 16.8159C16.3506 16.0116 17.2312 15.4239 18.3792 15.0532ZM19.6614 19.7573C19.4727 19.1502 19.3196 18.6579 18.5696 18.8911C17.8198 19.1243 17.9727 19.6171 18.1614 20.2241C18.3501 20.8309 18.5034 21.3224 19.2532 21.0893C20.0032 20.8561 19.8502 20.3643 19.6614 19.7573Z" fill="#3182F6"/>
<path d="M0 33.5V52L13 44H20.5L0 33.5Z" fill="#3182F6"/>
</svg>
