<svg width="200" height="65" viewBox="0 0 200 65" fill="none" xmlns="http://www.w3.org/2000/svg">
<path d="M55 7C60.5228 7 65 11.4772 65 17V41C65 46.5228 60.5228 51 55 51H31C25.4772 51 21 46.5228 21 41V17C21 11.4772 25.4772 7 31 7H55ZM44.2061 15.4922C42.0009 15.0927 39.7415 15.2669 37.4287 16.0137C35.0995 16.7659 33.1576 17.9489 31.6025 19.5625C30.0531 21.1652 29.0406 23.1224 28.5654 25.4346C28.0959 27.7358 28.3206 30.3092 29.2393 33.1543C30.1526 35.9827 31.4738 38.1974 33.2031 39.7979C34.9382 41.3873 36.9059 42.3873 39.1055 42.7979C41.3106 43.1973 43.5779 43.0217 45.9072 42.2695C48.2199 41.5228 50.1551 40.3465 51.7129 38.7412C53.268 37.1275 54.2848 35.1682 54.7627 32.8643C55.2379 30.552 55.0163 27.9731 54.0977 25.1279C53.1789 22.2827 51.8513 20.065 50.1162 18.4756C48.3785 16.878 46.4085 15.8834 44.2061 15.4922ZM55.5 37C54.1193 37 53 38.1193 53 39.5C53 40.8807 54.1193 42 55.5 42C56.8807 42 58 40.8807 58 39.5C58 38.1193 56.8807 37 55.5 37Z" fill="white"/>
<path d="M39.3792 22.0526C40.5272 21.6819 41.581 21.6457 42.5403 21.9422C43.5053 22.2278 44.3584 22.834 45.0989 23.7616C45.8447 24.6784 42.8085 29.9793 43.302 31.5106C43.7963 33.0412 47.6666 30.3233 47.6009 31.5106C47.54 32.6878 47.2032 33.679 46.5901 34.4833C45.9827 35.2764 45.1052 35.8587 43.9573 36.2294C42.8092 36.6001 41.7523 36.6428 40.7874 36.3573C39.8281 36.0607 38.9759 35.4535 38.2298 34.537C37.4893 33.6094 36.8715 32.3802 36.3772 30.8495C35.883 29.3189 35.666 27.965 35.7268 26.7879C35.7933 25.5998 36.1302 24.6086 36.7376 23.8153C37.3506 23.0111 38.2312 22.4233 39.3792 22.0526ZM40.6614 26.7567C40.4727 26.1498 40.3195 25.6583 39.5696 25.8915C38.8202 26.1247 38.9727 26.6166 39.1614 27.2235C39.3501 27.8304 39.5036 28.3226 40.2532 28.0897C41.0032 27.8565 40.8502 27.3638 40.6614 26.7567Z" fill="white"/>
<path d="M21 40.5V59L34 51H41.5L21 40.5Z" fill="white"/>
<path d="M97.418 25.5505L90.4465 24.1649C88.9939 23.6829 90.4465 24.1649 88.9939 23.6829C87.8932 23.3176 90.4465 24.1649 88.9939 23.6829C87.6206 23.3434 87.5335 23.3434 87 23.3434C86.3113 23.3434 85.7196 23.4693 85.2249 23.721C84.7302 23.9726 84.4877 24.3308 84.4974 24.7955C84.4877 25.1246 84.6283 25.4295 84.9193 25.7102C85.22 25.991 85.7972 26.2088 86.6508 26.3636L91.1905 27.1768C93.4797 27.593 95.1821 28.2948 96.2976 29.2822C97.4228 30.2599 97.9903 31.5715 98 33.2172C97.9903 34.8047 97.515 36.1841 96.5741 37.3554C95.6429 38.517 94.3673 39.4173 92.7474 40.0562C91.1371 40.6854 89.2989 41 87.2328 41C83.8183 41 81.1459 40.303 79.2156 38.9091C77.295 37.5152 76.2231 35.6759 76 33.3914L85.6046 35.2783C84.7371 35.1079 87.291 35.5985 85.6046 35.2783C87.291 35.5985 85.6046 35.2783 87.291 35.5985C88.0282 35.5985 88.6345 35.4726 89.1098 35.221C89.5948 34.9693 89.8422 34.6111 89.8519 34.1465C89.8422 33.7205 89.6287 33.3817 89.2116 33.1301C88.8042 32.8784 88.164 32.6751 87.291 32.5202L83.3333 31.8232C81.0538 31.4263 79.3466 30.6713 78.2116 29.5581C77.0767 28.4449 76.5141 27.0122 76.5238 25.2601C76.5141 23.7113 76.9215 22.3996 77.746 21.3251C78.5802 20.2409 79.7685 19.4181 81.3108 18.8567C82.8629 18.2856 84.7011 18 86.8254 18C90.0556 18 92.6019 18.6679 94.4643 20.0038C96.3364 21.3396 97.321 23.1886 97.418 25.5505Z" fill="white"/>
<path d="M107.631 22.5508V27.3553H101.001L101.001 22.5508H107.631ZM101.001 18.1307H107.631V35.0665C107.631 35.3227 107.675 35.5389 107.763 35.7151C107.851 35.8832 107.987 36.0113 108.171 36.0994C108.356 36.1795 108.592 36.2195 108.88 36.2195C109.08 36.2195 109.312 36.1955 109.577 36.1475C109.849 36.0994 110.049 36.0594 110.177 36.0274L111.138 40.6877C110.842 40.7758 110.417 40.8839 109.865 41.012C109.32 41.1401 108.672 41.2242 107.919 41.2642C106.398 41.3443 105.121 41.1882 104.088 40.7958C103.055 40.3954 102.278 39.7668 101.757 38.91C101.237 38.0532 100.985 36.9802 101.001 35.691V18.1307Z" fill="white"/>
<circle cx="109.618" cy="23.5" r="1.5" fill="white"/>
<path d="M142.24 23.0327C143.239 26.1269 143.48 28.9313 142.963 31.446C142.443 33.9516 141.338 36.0819 139.647 37.8369C137.953 39.5828 135.848 40.8618 133.333 41.674C130.8 42.492 128.334 42.6837 125.936 42.2493C123.544 41.8028 121.404 40.7153 119.517 38.9868C117.637 37.2463 116.199 34.838 115.206 31.7619C114.207 28.6677 113.963 25.8693 114.473 23.3666C114.99 20.8519 116.091 18.7231 117.776 16.9801C119.467 15.2251 121.58 13.9386 124.113 13.1206C126.628 12.3085 129.085 12.1196 131.483 12.5541C133.878 12.9796 136.021 14.0611 137.911 15.7986C139.797 17.5272 141.24 19.9385 142.24 23.0327ZM130.5 29.9746C129.962 28.3099 133.265 22.5438 132.454 21.547C131.648 20.5382 130.721 19.8786 129.672 19.568C128.628 19.2455 127.482 19.2858 126.234 19.689C124.985 20.0921 124.028 20.7311 123.361 21.6057C122.7 22.4684 122.334 23.5458 122.262 24.838C122.196 26.1182 122.431 27.5906 122.969 29.2553C123.506 30.92 124.178 32.2568 124.983 33.2656C125.794 34.2624 126.722 34.922 127.765 35.2446C128.814 35.5551 129.963 35.5088 131.212 35.1056C132.46 34.7025 133.415 34.0696 134.076 33.2069C134.742 32.3322 135.109 31.2548 135.175 29.9746C135.247 28.6824 131.038 31.6393 130.5 29.9746Z" fill="white"/>
<path d="M156.514 15.8011V41H149.723V15.8011H156.514Z" fill="white"/>
<path d="M165.325 36.5213L165.375 28.4498H166.261L170.838 22.1008H178.466L170.788 31.9934H168.869L165.325 36.5213ZM159.223 41V15.8011H166.014V41H159.223ZM170.887 41L166.556 33.5191L170.985 28.6958L178.663 41H170.887Z" fill="white"/>
<circle cx="143.5" cy="38.5" r="2.5" fill="white"/>
<path d="M127.628 24.8046C127.834 25.4648 128 26 127.184 26.2536C126.369 26.5072 126.202 25.972 125.997 25.3118C125.792 24.6516 125.625 24.1165 126.441 23.8629C127.257 23.6093 127.423 24.1444 127.628 24.8046Z" fill="white"/>
</svg>
